<svg width="611" height="340" viewBox="0 0 611 340" fill="none" xmlns="http://www.w3.org/2000/svg">
<circle cx="296" cy="5" r="5" fill="#172A58"/>
<circle cx="296" cy="35" r="5" fill="#172A58"/>
<circle cx="296" cy="65" r="5" fill="#172A58"/>
<circle cx="296" cy="95" r="5" fill="#172A58"/>
<circle cx="296" cy="125" r="5" fill="#172A58"/>
<circle cx="296" cy="155" r="5" fill="#172A58"/>
<circle cx="296" cy="185" r="5" fill="#172A58"/>
<circle cx="296" cy="215" r="5" fill="#172A58"/>
<circle cx="296" cy="245" r="5" fill="#172A58"/>
<circle cx="296" cy="275" r="5" fill="#172A58"/>
<circle cx="296" cy="305" r="5" fill="#172A58"/>
<circle cx="296" cy="335" r="5" fill="#172A58"/>
<circle cx="326" cy="5" r="5" fill="#172A58"/>
<circle cx="326" cy="35" r="5" fill="#172A58"/>
<circle cx="326" cy="65" r="5" fill="#172A58"/>
<circle cx="326" cy="95" r="5" fill="#172A58"/>
<circle cx="326" cy="125" r="5" fill="#172A58"/>
<circle cx="326" cy="155" r="5" fill="#172A58"/>
<circle cx="326" cy="185" r="5" fill="#172A58"/>
<circle cx="326" cy="215" r="5" fill="#172A58"/>
<circle cx="326" cy="245" r="5" fill="#172A58"/>
<circle cx="326" cy="275" r="5" fill="#172A58"/>
<circle cx="326" cy="305" r="5" fill="#172A58"/>
<circle cx="326" cy="335" r="5" fill="#172A58"/>
<circle cx="356" cy="5" r="5" fill="#172A58"/>
<circle cx="356" cy="35" r="5" fill="#172A58"/>
<circle cx="356" cy="65" r="5" fill="#172A58"/>
<circle cx="356" cy="95" r="5" fill="#172A58"/>
<circle cx="356" cy="125" r="5" fill="#172A58"/>
<circle cx="356" cy="155" r="5" fill="#172A58"/>
<circle cx="356" cy="185" r="5" fill="#172A58"/>
<circle cx="356" cy="215" r="5" fill="#172A58"/>
<circle cx="356" cy="245" r="5" fill="#172A58"/>
<circle cx="356" cy="275" r="5" fill="#172A58"/>
<circle cx="356" cy="305" r="5" fill="#172A58"/>
<circle cx="356" cy="335" r="5" fill="#172A58"/>
<circle cx="386" cy="5" r="5" fill="#172A58"/>
<circle cx="386" cy="35" r="5" fill="#172A58"/>
<circle cx="386" cy="65" r="5" fill="#172A58"/>
<circle cx="386" cy="95" r="5" fill="#172A58"/>
<circle cx="386" cy="125" r="5" fill="#172A58"/>
<circle cx="386" cy="155" r="5" fill="#172A58"/>
<circle cx="386" cy="185" r="5" fill="#172A58"/>
<circle cx="386" cy="215" r="5" fill="#172A58"/>
<circle cx="386" cy="245" r="5" fill="#172A58"/>
<circle cx="386" cy="275" r="5" fill="#172A58"/>
<circle cx="386" cy="305" r="5" fill="#172A58"/>
<circle cx="386" cy="335" r="5" fill="#172A58"/>
<circle cx="416" cy="5" r="5" fill="#172A58"/>
<circle cx="416" cy="35" r="5" fill="#172A58"/>
<circle cx="416" cy="65" r="5" fill="#172A58"/>
<circle cx="416" cy="95" r="5" fill="#172A58"/>
<circle cx="416" cy="125" r="5" fill="#172A58"/>
<circle cx="416" cy="155" r="5" fill="#172A58"/>
<circle cx="416" cy="185" r="5" fill="#172A58"/>
<circle cx="416" cy="215" r="5" fill="#172A58"/>
<circle cx="416" cy="245" r="5" fill="#172A58"/>
<circle cx="416" cy="275" r="5" fill="#172A58"/>
<circle cx="416" cy="305" r="5" fill="#172A58"/>
<circle cx="416" cy="335" r="5" fill="#172A58"/>
<circle cx="446" cy="5" r="5" fill="#172A58"/>
<circle cx="446" cy="35" r="5" fill="#172A58"/>
<circle cx="446" cy="65" r="5" fill="#172A58"/>
<circle cx="446" cy="95" r="5" fill="#172A58"/>
<circle cx="446" cy="125" r="5" fill="#172A58"/>
<circle cx="446" cy="155" r="5" fill="#172A58"/>
<circle cx="446" cy="185" r="5" fill="#172A58"/>
<circle cx="446" cy="215" r="5" fill="#172A58"/>
<circle cx="446" cy="245" r="5" fill="#172A58"/>
<circle cx="446" cy="275" r="5" fill="#172A58"/>
<circle cx="446" cy="305" r="5" fill="#172A58"/>
<circle cx="446" cy="335" r="5" fill="#172A58"/>
<circle cx="476" cy="5" r="5" fill="#172A58"/>
<circle cx="476" cy="35" r="5" fill="#172A58"/>
<circle cx="476" cy="65" r="5" fill="#172A58"/>
<circle cx="476" cy="95" r="5" fill="#172A58"/>
<circle cx="476" cy="125" r="5" fill="#172A58"/>
<circle cx="476" cy="155" r="5" fill="#172A58"/>
<circle cx="476" cy="185" r="5" fill="#172A58"/>
<circle cx="476" cy="215" r="5" fill="#172A58"/>
<circle cx="476" cy="245" r="5" fill="#172A58"/>
<circle cx="476" cy="275" r="5" fill="#172A58"/>
<circle cx="476" cy="305" r="5" fill="#172A58"/>
<circle cx="476" cy="335" r="5" fill="#172A58"/>
<circle cx="506" cy="5" r="5" fill="#172A58"/>
<circle cx="536" cy="5" r="5" fill="#172A58"/>
<circle cx="566" cy="5" r="5" fill="#172A58"/>
<circle cx="596" cy="5" r="5" fill="#172A58"/>
<circle cx="506" cy="35" r="5" fill="#172A58"/>
<circle cx="536" cy="35" r="5" fill="#172A58"/>
<circle cx="566" cy="35" r="5" fill="#172A58"/>
<circle cx="596" cy="35" r="5" fill="#172A58"/>
<circle cx="506" cy="65" r="5" fill="#172A58"/>
<circle cx="536" cy="65" r="5" fill="#172A58"/>
<circle cx="566" cy="65" r="5" fill="#172A58"/>
<circle cx="596" cy="65" r="5" fill="#172A58"/>
<circle cx="506" cy="95" r="5" fill="#172A58"/>
<circle cx="536" cy="95" r="5" fill="#172A58"/>
<circle cx="566" cy="95" r="5" fill="#172A58"/>
<circle cx="596" cy="95" r="5" fill="#172A58"/>
<circle cx="506" cy="125" r="5" fill="#172A58"/>
<circle cx="536" cy="125" r="5" fill="#172A58"/>
<circle cx="566" cy="125" r="5" fill="#172A58"/>
<circle cx="596" cy="125" r="5" fill="#172A58"/>
<circle cx="506" cy="155" r="5" fill="#172A58"/>
<circle cx="536" cy="155" r="5" fill="#172A58"/>
<circle cx="566" cy="155" r="5" fill="#172A58"/>
<circle cx="596" cy="155" r="5" fill="#172A58"/>
<circle cx="506" cy="185" r="5" fill="#172A58"/>
<circle cx="536" cy="185" r="5" fill="#172A58"/>
<circle cx="566" cy="185" r="5" fill="#172A58"/>
<circle cx="596" cy="185" r="5" fill="#172A58"/>
<circle cx="506" cy="215" r="5" fill="#172A58"/>
<circle cx="536" cy="215" r="5" fill="#172A58"/>
<circle cx="566" cy="215" r="5" fill="#172A58"/>
<circle cx="596" cy="215" r="5" fill="#172A58"/>
<circle cx="506" cy="245" r="5" fill="#172A58"/>
<circle cx="536" cy="245" r="5" fill="#172A58"/>
<circle cx="566" cy="245" r="5" fill="#172A58"/>
<circle cx="596" cy="245" r="5" fill="#172A58"/>
<circle cx="506" cy="275" r="5" fill="#172A58"/>
<circle cx="536" cy="275" r="5" fill="#172A58"/>
<circle cx="566" cy="275" r="5" fill="#172A58"/>
<circle cx="596" cy="275" r="5" fill="#172A58"/>
<circle cx="506" cy="305" r="5" fill="#172A58"/>
<circle cx="536" cy="305" r="5" fill="#172A58"/>
<circle cx="566" cy="305" r="5" fill="#172A58"/>
<circle cx="596" cy="305" r="5" fill="#172A58"/>
<circle cx="506" cy="335" r="5" fill="#172A58"/>
<circle cx="536" cy="335" r="5" fill="#172A58"/>
<circle cx="566" cy="335" r="5" fill="#172A58"/>
<circle cx="596" cy="335" r="5" fill="#172A58"/>
<path d="M285.21 54.0048L296.9 54.7915C297.354 54.8195 297.791 54.9707 298.164 55.2289C298.538 55.4871 298.833 55.8424 299.019 56.2564L300.251 58.9692C300.518 59.5549 301.001 60.0149 301.6 60.2532C303.066 60.855 304.488 61.5591 305.856 62.3601C306.402 62.6805 307.048 62.7839 307.667 62.6495L310.601 61.9622C311.043 61.8604 311.504 61.8797 311.936 62.0182C312.368 62.1567 312.755 62.4092 313.055 62.7489L320.77 71.5564C321.069 71.899 321.27 72.3165 321.349 72.7641C321.429 73.2118 321.385 73.6726 321.223 74.0973L320.154 76.9005C319.929 77.5041 319.945 78.1713 320.2 78.7633C320.812 80.2331 321.32 81.7438 321.721 83.2845C321.876 83.9087 322.269 84.4475 322.817 84.7856L325.37 86.368C325.757 86.606 326.07 86.9449 326.278 87.3482C326.485 87.7514 326.579 88.2036 326.547 88.6558L325.769 100.339C325.739 100.791 325.586 101.227 325.326 101.598C325.065 101.97 324.708 102.263 324.293 102.446L321.576 103.675C320.993 103.948 320.534 104.428 320.29 105.023C319.694 106.489 318.992 107.909 318.189 109.273C317.866 109.817 317.762 110.464 317.9 111.081L318.579 114.002C318.684 114.443 318.666 114.905 318.527 115.337C318.388 115.769 318.134 116.155 317.791 116.453L308.971 124.157C308.63 124.456 308.213 124.656 307.766 124.736C307.319 124.815 306.859 124.772 306.435 124.609L303.619 123.542C303.023 123.307 302.359 123.307 301.763 123.542C300.29 124.151 298.777 124.658 297.235 125.061C296.612 125.219 296.073 125.611 295.732 126.155L294.147 128.705C293.907 129.091 293.566 129.404 293.161 129.611C292.755 129.819 292.301 129.912 291.847 129.881L280.157 129.103C279.704 129.073 279.268 128.921 278.895 128.663C278.521 128.405 278.225 128.051 278.038 127.638L276.806 124.925C276.539 124.34 276.056 123.88 275.457 123.641C273.991 123.04 272.569 122.336 271.201 121.535C270.656 121.213 270.009 121.11 269.39 121.245L266.465 121.932C266.023 122.036 265.561 122.018 265.129 121.879C264.697 121.741 264.31 121.487 264.011 121.146L256.287 112.338C255.99 111.995 255.79 111.577 255.711 111.13C255.631 110.683 255.674 110.222 255.834 109.797L256.903 106.994C257.129 106.394 257.112 105.729 256.858 105.14C256.247 103.67 255.739 102.159 255.336 100.619C255.182 99.995 254.788 99.4561 254.241 99.118L251.687 97.5356C251.301 97.2976 250.987 96.9587 250.779 96.5555C250.572 96.1523 250.479 95.7001 250.51 95.2478L251.289 83.5649C251.32 83.1119 251.474 82.6761 251.734 82.3035C251.994 81.9309 252.35 81.6356 252.765 81.4489L255.481 80.2282C256.068 79.9614 256.528 79.4787 256.767 78.8808C257.37 77.4136 258.075 75.9904 258.877 74.6218C259.2 74.0777 259.307 73.4322 259.176 72.8133L258.488 69.8925C258.384 69.4511 258.402 68.9898 258.541 68.5581C258.68 68.1263 258.933 67.7405 259.275 67.442L268.095 59.7378C268.436 59.4382 268.852 59.2369 269.299 59.1557C269.746 59.0744 270.206 59.1162 270.631 59.2766L273.447 60.3436C274.042 60.5835 274.708 60.5835 275.303 60.3436C276.775 59.731 278.288 59.2233 279.831 58.8245C280.451 58.6645 280.988 58.277 281.334 57.7394L282.919 55.1894C283.158 54.8039 283.497 54.4903 283.901 54.2817C284.304 54.0732 284.756 53.9775 285.21 54.0048ZM266.42 90.5095C266.127 94.8801 267.138 99.2393 269.327 103.036C271.515 106.832 274.781 109.895 278.713 111.838C282.645 113.78 287.065 114.515 291.414 113.948C295.764 113.382 299.848 111.54 303.149 108.656C306.451 105.771 308.821 101.974 309.961 97.7444C311.101 93.5146 310.96 89.0421 309.554 84.8928C308.148 80.7434 305.542 77.1035 302.065 74.4335C298.587 71.7634 294.395 70.1831 290.018 69.8925C284.152 69.5055 278.372 71.4593 273.947 75.325C269.522 79.1907 266.815 84.6521 266.42 90.5095Z" fill="#6F97F6"/>
<path d="M331.546 103.36L335.558 102.003C335.77 101.934 335.997 101.922 336.215 101.97C336.433 102.018 336.635 102.123 336.798 102.275L337.459 102.908C337.691 103.115 337.99 103.231 338.301 103.233C338.853 103.233 339.403 103.269 339.95 103.342C340.107 103.367 340.269 103.361 340.424 103.324C340.58 103.287 340.726 103.219 340.855 103.125L341.598 102.591C341.781 102.463 341.995 102.386 342.218 102.368C342.441 102.351 342.664 102.393 342.865 102.492L346.66 104.372C346.859 104.47 347.029 104.62 347.15 104.807C347.271 104.993 347.339 105.208 347.348 105.43V106.335C347.36 106.647 347.489 106.944 347.71 107.167C348.101 107.554 348.464 107.968 348.797 108.405C348.986 108.652 349.26 108.819 349.566 108.876L350.472 109.02C350.692 109.057 350.897 109.153 351.067 109.298C351.236 109.443 351.362 109.632 351.432 109.843L352.79 113.849C352.864 114.06 352.878 114.287 352.832 114.505C352.786 114.723 352.68 114.925 352.527 115.088L351.893 115.748C351.684 115.978 351.568 116.278 351.567 116.589C351.568 117.139 351.531 117.689 351.459 118.235C351.432 118.392 351.437 118.552 351.473 118.707C351.509 118.863 351.575 119.009 351.667 119.139L352.201 119.88C352.333 120.06 352.413 120.272 352.432 120.494C352.452 120.715 352.409 120.938 352.31 121.137L350.426 124.935C350.329 125.135 350.178 125.304 349.992 125.425C349.805 125.546 349.589 125.614 349.367 125.622H348.462C348.15 125.632 347.855 125.762 347.637 125.984C347.243 126.367 346.829 126.729 346.397 127.069C346.15 127.258 345.982 127.532 345.926 127.838L345.781 128.742C345.744 128.962 345.648 129.167 345.503 129.336C345.358 129.505 345.169 129.631 344.957 129.701L340.946 131.057C340.734 131.13 340.506 131.143 340.287 131.095C340.068 131.047 339.867 130.94 339.705 130.786L339.035 130.162C338.808 129.947 338.505 129.831 338.193 129.836C337.645 129.836 337.097 129.8 336.554 129.728C336.397 129.701 336.236 129.705 336.08 129.741C335.925 129.777 335.778 129.843 335.648 129.936L334.906 130.469C334.724 130.601 334.51 130.68 334.287 130.7C334.064 130.719 333.839 130.677 333.638 130.578L329.844 128.697C329.643 128.598 329.472 128.447 329.351 128.259C329.23 128.071 329.162 127.853 329.156 127.63V126.726C329.141 126.416 329.012 126.123 328.793 125.903C328.405 125.513 328.042 125.1 327.707 124.664C327.616 124.539 327.501 124.433 327.369 124.352C327.237 124.272 327.09 124.218 326.937 124.194L326.031 124.049C325.812 124.009 325.606 123.912 325.436 123.768C325.266 123.623 325.137 123.436 325.063 123.226L323.704 119.211C323.634 119.001 323.623 118.775 323.671 118.559C323.718 118.342 323.824 118.143 323.976 117.981L324.61 117.321C324.82 117.088 324.936 116.785 324.936 116.471C324.936 115.921 324.972 115.371 325.044 114.826C325.094 114.507 325.016 114.182 324.827 113.921L324.302 113.18C324.17 113.001 324.09 112.788 324.071 112.567C324.052 112.345 324.094 112.122 324.193 111.923L326.077 108.125C326.174 107.925 326.324 107.756 326.511 107.637C326.698 107.517 326.914 107.451 327.136 107.447H328.042C328.355 107.435 328.652 107.306 328.875 107.085C329.265 106.697 329.679 106.335 330.115 106C330.362 105.811 330.53 105.537 330.586 105.231L330.731 104.327C330.766 104.107 330.86 103.9 331.003 103.73C331.147 103.559 331.335 103.431 331.546 103.36ZM333.946 117.99C334.234 118.836 334.767 119.578 335.477 120.122C336.187 120.665 337.042 120.987 337.935 121.046C338.828 121.104 339.718 120.897 340.494 120.451C341.269 120.005 341.894 119.339 342.291 118.538C342.687 117.737 342.837 116.837 342.722 115.951C342.607 115.065 342.231 114.233 341.642 113.56C341.054 112.887 340.278 112.403 339.415 112.17C338.551 111.936 337.637 111.964 336.789 112.248C336.224 112.438 335.702 112.737 335.254 113.129C334.805 113.52 334.438 113.996 334.174 114.53C333.909 115.063 333.753 115.644 333.714 116.238C333.675 116.831 333.754 117.427 333.946 117.99Z" fill="#6F97F6"/>
<path opacity="0.5" d="M331.546 103.36L335.558 102.003C335.77 101.934 335.997 101.922 336.215 101.97C336.433 102.018 336.635 102.123 336.798 102.275L337.459 102.908C337.691 103.115 337.99 103.231 338.301 103.233C338.853 103.233 339.403 103.269 339.95 103.342C340.107 103.367 340.269 103.361 340.424 103.324C340.58 103.287 340.726 103.219 340.855 103.125L341.598 102.591C341.781 102.463 341.995 102.386 342.218 102.368C342.441 102.351 342.664 102.393 342.865 102.492L346.66 104.372C346.859 104.47 347.029 104.62 347.15 104.807C347.271 104.993 347.339 105.208 347.348 105.43V106.335C347.36 106.647 347.489 106.944 347.71 107.167C348.101 107.554 348.464 107.968 348.797 108.405C348.986 108.652 349.26 108.819 349.566 108.876L350.472 109.02C350.692 109.057 350.897 109.153 351.067 109.298C351.236 109.443 351.362 109.632 351.432 109.843L352.79 113.849C352.864 114.06 352.878 114.287 352.832 114.505C352.786 114.723 352.68 114.925 352.527 115.088L351.893 115.748C351.684 115.978 351.568 116.278 351.567 116.589C351.568 117.139 351.531 117.689 351.459 118.235C351.432 118.392 351.437 118.552 351.473 118.707C351.509 118.863 351.575 119.009 351.667 119.139L352.201 119.88C352.333 120.06 352.413 120.272 352.432 120.494C352.452 120.715 352.409 120.938 352.31 121.137L350.426 124.935C350.329 125.135 350.178 125.304 349.992 125.425C349.805 125.546 349.589 125.614 349.367 125.622H348.462C348.15 125.632 347.855 125.762 347.637 125.984C347.243 126.367 346.829 126.729 346.397 127.069C346.15 127.258 345.982 127.532 345.926 127.838L345.781 128.742C345.744 128.962 345.648 129.167 345.503 129.336C345.358 129.505 345.169 129.631 344.957 129.701L340.946 131.057C340.734 131.13 340.506 131.143 340.287 131.095C340.068 131.047 339.867 130.94 339.705 130.786L339.035 130.162C338.808 129.947 338.505 129.831 338.193 129.836C337.645 129.836 337.097 129.8 336.554 129.728C336.397 129.701 336.236 129.705 336.08 129.741C335.925 129.777 335.778 129.843 335.648 129.936L334.906 130.469C334.724 130.601 334.51 130.68 334.287 130.7C334.064 130.719 333.839 130.677 333.638 130.578L329.844 128.697C329.643 128.598 329.472 128.447 329.351 128.259C329.23 128.071 329.162 127.853 329.156 127.63V126.726C329.141 126.416 329.012 126.123 328.793 125.903C328.405 125.513 328.042 125.1 327.707 124.664C327.616 124.539 327.501 124.433 327.369 124.352C327.237 124.272 327.09 124.218 326.937 124.194L326.031 124.049C325.812 124.009 325.606 123.912 325.436 123.768C325.266 123.623 325.137 123.436 325.063 123.226L323.704 119.211C323.634 119.001 323.623 118.775 323.671 118.559C323.718 118.342 323.824 118.143 323.976 117.981L324.61 117.321C324.82 117.088 324.936 116.785 324.936 116.471C324.936 115.921 324.972 115.371 325.044 114.826C325.094 114.507 325.016 114.182 324.827 113.921L324.302 113.18C324.17 113.001 324.09 112.788 324.071 112.567C324.052 112.345 324.094 112.122 324.193 111.923L326.077 108.125C326.174 107.925 326.324 107.756 326.511 107.637C326.698 107.517 326.914 107.451 327.136 107.447H328.042C328.355 107.435 328.652 107.306 328.875 107.085C329.265 106.697 329.679 106.335 330.115 106C330.362 105.811 330.53 105.537 330.586 105.231L330.731 104.327C330.766 104.107 330.86 103.9 331.003 103.73C331.147 103.559 331.335 103.431 331.546 103.36ZM333.946 117.99C334.234 118.836 334.767 119.578 335.477 120.122C336.187 120.665 337.042 120.987 337.935 121.046C338.828 121.104 339.718 120.897 340.494 120.451C341.269 120.005 341.894 119.339 342.291 118.538C342.687 117.737 342.837 116.837 342.722 115.951C342.607 115.065 342.231 114.233 341.642 113.56C341.054 112.887 340.278 112.403 339.415 112.17C338.551 111.936 337.637 111.964 336.789 112.248C336.224 112.438 335.702 112.737 335.254 113.129C334.805 113.52 334.438 113.996 334.174 114.53C333.909 115.063 333.753 115.644 333.714 116.238C333.675 116.831 333.754 117.427 333.946 117.99Z" fill="white"/>
<path d="M308.41 146.781L313.39 138.164C313.574 137.843 313.672 137.48 313.673 137.111C313.673 136.741 313.578 136.377 313.395 136.056C313.212 135.734 312.948 135.466 312.63 135.278C312.311 135.089 311.949 134.987 311.579 134.981H301.618C301.247 134.984 300.883 135.085 300.563 135.273C300.243 135.461 299.978 135.729 299.794 136.052C299.611 136.374 299.516 136.739 299.518 137.109C299.52 137.48 299.62 137.844 299.807 138.164L304.787 146.781C304.978 147.09 305.244 147.345 305.561 147.521C305.878 147.698 306.235 147.791 306.598 147.791C306.961 147.791 307.318 147.698 307.635 147.521C307.952 147.345 308.219 147.09 308.41 146.781Z" fill="#6F97F6"/>
<path d="M145.224 245.054H267.298C267.717 245.055 268.133 244.972 268.519 244.809C268.905 244.647 269.255 244.408 269.546 244.108C269.838 243.807 270.066 243.451 270.216 243.06C270.367 242.67 270.437 242.253 270.422 241.834L267.534 154.682C267.495 153.82 267.127 153.005 266.505 152.405C265.884 151.805 265.057 151.465 264.192 151.454H142.127C141.706 151.451 141.29 151.534 140.902 151.696C140.515 151.859 140.165 152.099 139.873 152.4C139.58 152.702 139.353 153.06 139.203 153.452C139.054 153.845 138.985 154.263 139.003 154.682L141.882 241.834C141.917 242.697 142.284 243.513 142.906 244.113C143.529 244.713 144.359 245.05 145.224 245.054Z" fill="#6F97F6"/>
<path d="M146.22 245.053H268.294C268.714 245.055 269.129 244.972 269.515 244.809C269.901 244.647 270.251 244.408 270.542 244.108C270.834 243.807 271.062 243.451 271.213 243.06C271.363 242.67 271.433 242.253 271.419 241.834L268.53 154.682C268.491 153.82 268.123 153.005 267.502 152.405C266.88 151.805 266.053 151.465 265.188 151.454H143.123C142.703 151.453 142.287 151.536 141.9 151.699C141.513 151.862 141.163 152.102 140.872 152.403C140.58 152.705 140.352 153.062 140.202 153.454C140.052 153.845 139.983 154.263 139.999 154.682L142.887 241.834C142.922 242.696 143.288 243.511 143.908 244.11C144.529 244.709 145.356 245.047 146.22 245.053Z" fill="#6F97F6"/>
<g opacity="0.6">
<path opacity="0.6" d="M146.22 245.053H268.294C268.714 245.055 269.129 244.972 269.515 244.809C269.901 244.647 270.251 244.408 270.542 244.108C270.834 243.807 271.062 243.451 271.213 243.06C271.363 242.67 271.433 242.253 271.419 241.834L268.53 154.682C268.491 153.82 268.123 153.005 267.502 152.405C266.88 151.805 266.053 151.465 265.188 151.454H143.123C142.703 151.453 142.287 151.536 141.9 151.699C141.513 151.862 141.163 152.102 140.872 152.403C140.58 152.705 140.352 153.062 140.202 153.454C140.052 153.845 139.983 154.263 139.999 154.682L142.887 241.834C142.922 242.696 143.288 243.511 143.908 244.11C144.529 244.709 145.356 245.047 146.22 245.053Z" fill="#263238"/>
</g>
<path d="M147.795 244.901H295.225C295.95 244.9 296.661 245.104 297.275 245.487C297.89 245.871 298.385 246.42 298.702 247.071C298.784 247.241 298.82 247.429 298.809 247.617C298.797 247.806 298.738 247.988 298.637 248.147C298.535 248.306 298.395 248.437 298.229 248.527C298.063 248.617 297.877 248.664 297.688 248.662H145.332C145.143 248.665 144.955 248.62 144.788 248.531C144.621 248.441 144.479 248.31 144.377 248.151C144.274 247.992 144.214 247.809 144.202 247.62C144.191 247.431 144.227 247.242 144.309 247.071C144.628 246.419 145.124 245.87 145.74 245.486C146.357 245.103 147.069 244.9 147.795 244.901Z" fill="#6F97F6"/>
<path opacity="0.6" d="M295.225 244.901H177.578C176.852 244.9 176.14 245.103 175.523 245.486C174.907 245.87 174.411 246.419 174.092 247.071C174.01 247.242 173.973 247.431 173.985 247.62C173.997 247.809 174.057 247.992 174.159 248.151C174.262 248.31 174.404 248.441 174.571 248.531C174.738 248.62 174.925 248.665 175.115 248.662H297.688C297.877 248.664 298.063 248.617 298.229 248.527C298.395 248.437 298.535 248.306 298.637 248.147C298.738 247.988 298.797 247.806 298.809 247.617C298.82 247.429 298.783 247.241 298.702 247.071C298.384 246.42 297.89 245.871 297.275 245.487C296.66 245.104 295.95 244.9 295.225 244.901Z" fill="#263238"/>
<path opacity="0.3" d="M224.901 247.287H255.508C255.872 247.289 256.22 247.435 256.476 247.692C256.732 247.95 256.876 248.298 256.876 248.661H223.525C223.525 248.297 223.67 247.947 223.928 247.689C224.186 247.431 224.536 247.287 224.901 247.287Z" fill="white"/>
<path opacity="0.9" d="M268.503 238.679L265.786 157.838C265.77 157.502 265.626 157.185 265.384 156.952C265.141 156.718 264.819 156.586 264.482 156.581H144.128C143.962 156.58 143.797 156.612 143.644 156.677C143.492 156.742 143.354 156.838 143.24 156.959C143.126 157.079 143.038 157.222 142.982 157.378C142.926 157.534 142.903 157.7 142.914 157.865L145.631 238.706C145.643 239.042 145.784 239.36 146.025 239.594C146.267 239.828 146.589 239.961 146.926 239.963H267.362C267.521 239.953 267.677 239.913 267.821 239.843C267.965 239.774 268.093 239.676 268.199 239.557C268.305 239.438 268.387 239.299 268.439 239.148C268.491 238.997 268.512 238.838 268.503 238.679Z" fill="white"/>
<path d="M169.284 239.935H152.686L171.819 156.581H188.418L169.284 239.935Z" fill="white"/>
<path d="M179.86 239.935H173.884L193.018 156.581H198.994L179.86 239.935Z" fill="white"/>
<path d="M240.92 239.935H234.944L254.078 156.581H260.045L240.92 239.935Z" fill="white"/>
<path opacity="0.4" d="M203.296 154.159C203.318 154.404 203.43 154.631 203.611 154.798C203.791 154.965 204.027 155.06 204.273 155.063C204.514 155.063 204.744 154.968 204.914 154.798C205.084 154.629 205.179 154.399 205.179 154.159C205.161 153.913 205.05 153.682 204.868 153.515C204.687 153.347 204.448 153.254 204.201 153.255C203.961 153.255 203.731 153.35 203.561 153.519C203.391 153.689 203.296 153.919 203.296 154.159Z" fill="white"/>
<path d="M242.161 145.26C243.764 147.828 245.493 150.549 247.223 153.172C248.952 155.794 250.727 158.416 252.538 160.985C256.052 166.087 259.853 170.987 263.921 175.661C265.832 177.842 267.905 179.877 270.124 181.746L270.902 182.361C271.073 182.507 271.251 182.643 271.437 182.768C271.906 183.076 272.393 183.357 272.895 183.609C274.117 184.203 275.382 184.705 276.68 185.11C278.047 185.571 279.487 186.014 280.954 186.349C282.421 186.683 283.933 187.072 285.482 187.389C288.515 188.031 291.684 188.619 294.736 189.143V195.473C292.997 195.726 291.367 195.853 289.674 195.97C287.981 196.088 286.306 196.133 284.603 196.142C281.127 196.154 277.656 195.879 274.226 195.319C272.368 194.997 270.537 194.537 268.747 193.945C267.746 193.601 266.771 193.184 265.831 192.697C265.333 192.462 264.808 192.127 264.301 191.792L263.133 190.979C260.251 188.864 257.555 186.507 255.074 183.934C250.401 179.065 246.077 173.874 242.134 168.399C240.172 165.717 238.282 163.004 236.465 160.261C234.654 157.476 232.843 154.745 231.159 151.779L242.161 145.26Z" fill="#FFC3BD"/>
<path d="M226.921 147.015C226.015 154.954 244.968 173.926 244.968 173.926L257.79 163.237C254.033 156.888 249.874 150.784 245.339 144.962C238.05 135.947 227.908 138.036 226.921 147.015Z" fill="#6F97F6"/>
<path opacity="0.3" d="M237.28 152.649C232.218 147.224 229.8 145.822 226.884 147.983C227.274 156.366 244.995 173.908 244.995 173.908C246.154 164.911 241.563 159.124 237.28 152.649Z" fill="black"/>
<path d="M256.749 159.574L258.098 163.48L243.754 175.235L240.92 172.297L256.749 159.574Z" fill="#6F97F6"/>
<path opacity="0.3" d="M256.749 159.574L258.098 163.48L243.754 175.235L240.92 172.297L256.749 159.574Z" fill="#263238"/>
<path d="M294.057 189.017L304.017 190.726L298.539 199.461C297.235 199.669 292.037 196.857 289.737 193.367L294.057 189.017Z" fill="#FFC3BD"/>
<path d="M310.13 196.622L306.155 201.125L298.53 199.416L304 190.726L310.13 196.622Z" fill="#FFC3BD"/>
<path d="M237.235 139.41C237.235 139.41 248.101 164.928 240.277 212.455H195.001C194.448 205.52 197.636 171.673 189.803 138.976C194.787 138.01 199.83 137.373 204.898 137.068C211.307 136.697 217.732 136.697 224.141 137.068C228.559 137.51 232.937 138.293 237.235 139.41Z" fill="#6F97F6"/>
<path opacity="0.3" d="M199.918 147.015C200.824 152.441 199.61 165.263 194.992 180.147C194.638 167.381 193.15 154.671 190.546 142.168V142.105C193.498 141.861 199.022 142.005 199.918 147.015Z" fill="black"/>
<path d="M206.048 115.428C207.479 121.613 209.082 132.943 204.898 137.067C204.898 137.067 206.709 142.185 218.209 142.185C230.887 142.185 224.141 137.067 224.141 137.067C217.177 135.421 217.177 130.303 218.209 125.501L206.048 115.428Z" fill="#FFC3BD"/>
<path d="M218.988 142.666L221.705 145.532C221.787 145.617 221.842 145.724 221.861 145.841C221.881 145.957 221.864 146.077 221.814 146.183L220.455 149.013C220.412 149.11 220.342 149.192 220.254 149.251C220.166 149.311 220.063 149.344 219.957 149.348L217.902 149.448C217.804 149.452 217.707 149.43 217.62 149.386C217.532 149.342 217.458 149.276 217.404 149.194L215.502 146.482C215.426 146.38 215.384 146.256 215.384 146.129C215.384 146.002 215.426 145.878 215.502 145.776L218.11 142.693C218.162 142.627 218.227 142.573 218.302 142.535C218.377 142.497 218.459 142.476 218.543 142.473C218.627 142.47 218.71 142.486 218.787 142.52C218.864 142.553 218.933 142.603 218.988 142.666Z" fill="white"/>
<path d="M218.544 142.187C217.237 144.287 216.481 146.681 216.344 149.15C216.344 149.15 201.647 144.131 202.317 136.789C203.623 136.157 204.879 135.428 206.075 134.609C206.075 134.609 206.555 139.248 218.544 142.187Z" fill="#263238"/>
<path d="M218.545 142.185C219.852 144.176 220.793 146.384 221.325 148.705C221.325 148.705 228.134 144.048 226.196 136.787L222.194 135.927C222.194 135.927 223.036 140.612 218.545 142.185Z" fill="#263238"/>
<path d="M220.211 149.04C221.116 152.042 227.944 174.305 228.116 179.631C228.121 179.676 228.121 179.722 228.116 179.767C227.482 182.633 224.639 187.661 223.48 189.632C223.435 189.71 223.37 189.774 223.291 189.816C223.212 189.859 223.122 189.879 223.033 189.873C222.943 189.867 222.857 189.837 222.784 189.784C222.711 189.732 222.654 189.661 222.619 189.578C221.823 187.634 219.903 182.977 218.635 180.255C218.612 180.203 218.596 180.148 218.59 180.092C217.992 170.372 217.829 155.252 217.53 149.212C217.527 149.147 217.536 149.082 217.559 149.02C217.581 148.959 217.616 148.903 217.661 148.855C217.706 148.808 217.76 148.77 217.82 148.744C217.88 148.719 217.945 148.705 218.01 148.706H219.758C219.859 148.707 219.957 148.739 220.039 148.8C220.12 148.86 220.18 148.944 220.211 149.04Z" fill="white"/>
<path opacity="0.2" d="M211.011 119.535L218.21 125.494C217.949 126.614 217.788 127.755 217.73 128.903C215.076 128.523 211.391 125.639 210.983 122.881C210.784 121.773 210.793 120.639 211.011 119.535Z" fill="black"/>
<path d="M223.779 97.0449C225.49 98.3199 228.415 103.709 224.684 105.12C220.954 106.53 219.586 93.9161 223.779 97.0449Z" fill="#263238"/>
<path d="M203.821 108.014C205.532 116.251 206.121 121.143 210.947 124.932C212.502 126.183 214.371 126.985 216.35 127.252C218.329 127.518 220.343 127.239 222.175 126.445C224.006 125.65 225.585 124.371 226.741 122.745C227.897 121.119 228.585 119.208 228.732 117.219C229.438 109.578 226.504 97.3977 217.865 94.9924C216.009 94.4245 214.037 94.3536 212.145 94.787C210.253 95.2204 208.508 96.1427 207.085 97.4616C205.663 98.7804 204.612 100.45 204.039 102.301C203.466 104.153 203.391 106.123 203.821 108.014Z" fill="#FFC3BD"/>
<path d="M204.898 114.217L208.357 111.911L208.584 109.904C208.902 106.993 208.357 104.053 207.017 101.449C207.017 101.449 223.833 102.073 225.916 96.8193C227.998 91.5656 222.076 87.614 222.076 87.614C222.076 87.614 216.127 91.0231 212.115 91.2943C208.104 91.5656 195.816 86.556 195.816 96.9278C190.383 98.6007 190.564 107.526 204.871 114.217" fill="#263238"/>
<path d="M196.423 97.3358C196.423 97.3358 194.195 95.5725 195.852 90.1831C193.815 91.1959 192.837 96.7028 196.423 97.3358Z" fill="#263238"/>
<path d="M201.385 117.573C202.754 119.208 204.698 120.259 206.818 120.511C209.625 120.81 210.44 118.224 209.226 115.845C208.104 113.711 205.296 110.981 202.707 111.785C200.117 112.59 199.709 115.538 201.385 117.573Z" fill="#FFC3BD"/>
<path d="M244.099 239.936H215.167C212.568 224.257 210.477 212.456 210.477 212.456H240.278C240.278 212.456 241.953 224.058 244.099 239.936Z" fill="#263238"/>
<path d="M196.105 239.936C195.453 224.257 194.964 212.456 194.964 212.456H224.176C224.176 212.456 224.321 224.401 224.385 239.936H196.105Z" fill="#263238"/>
<path d="M216.797 108.946C216.896 109.624 217.331 110.131 217.775 110.085C218.218 110.04 218.499 109.443 218.399 108.774C218.3 108.105 217.865 107.59 217.421 107.635C216.978 107.68 216.697 108.268 216.797 108.946Z" fill="#263238"/>
<path d="M224.467 108.133C224.566 108.811 225.001 109.317 225.445 109.263C225.888 109.209 226.169 108.63 226.069 107.961C225.97 107.292 225.535 106.776 225.091 106.822C224.648 106.867 224.367 107.427 224.467 108.133Z" fill="#263238"/>
<path d="M222.076 108.709C223.188 110.69 224.558 112.514 226.151 114.135C225.119 115.382 223 115.093 223 115.093L222.076 108.709Z" fill="#ED847E"/>
<path d="M219.885 117.174C220.351 117.223 220.822 117.223 221.288 117.174C221.314 117.171 221.34 117.164 221.363 117.152C221.387 117.14 221.407 117.123 221.424 117.103C221.441 117.083 221.454 117.059 221.461 117.034C221.469 117.009 221.472 116.983 221.469 116.957C221.462 116.903 221.435 116.854 221.393 116.82C221.351 116.787 221.297 116.771 221.243 116.776C220.39 116.884 219.523 116.795 218.71 116.516C217.897 116.237 217.158 115.775 216.552 115.166C216.535 115.146 216.514 115.129 216.49 115.117C216.467 115.105 216.441 115.098 216.414 115.096C216.388 115.094 216.361 115.097 216.336 115.105C216.311 115.113 216.287 115.126 216.267 115.144C216.247 115.161 216.23 115.182 216.218 115.205C216.206 115.229 216.199 115.255 216.197 115.281C216.195 115.308 216.198 115.334 216.206 115.36C216.214 115.385 216.227 115.408 216.244 115.428C217.211 116.424 218.502 117.043 219.885 117.174Z" fill="#263238"/>
<path d="M214.026 106.74C214.104 106.75 214.182 106.736 214.252 106.701C214.321 106.665 214.378 106.61 214.416 106.541C214.648 106.104 214.984 105.731 215.395 105.453C215.805 105.176 216.277 105.003 216.77 104.95C216.877 104.943 216.976 104.895 217.047 104.815C217.118 104.736 217.155 104.631 217.15 104.525C217.148 104.473 217.135 104.421 217.113 104.374C217.091 104.327 217.06 104.284 217.021 104.249C216.982 104.214 216.937 104.186 216.888 104.168C216.838 104.151 216.786 104.143 216.734 104.145C216.106 104.207 215.503 104.422 214.978 104.77C214.452 105.119 214.02 105.59 213.718 106.144C213.691 106.19 213.674 106.241 213.667 106.294C213.66 106.347 213.664 106.401 213.678 106.452C213.692 106.504 213.717 106.552 213.75 106.593C213.784 106.635 213.825 106.67 213.872 106.695C213.919 106.724 213.972 106.739 214.026 106.74Z" fill="#263238"/>
<path d="M227.337 105.12C227.433 105.127 227.529 105.102 227.609 105.048C227.694 104.987 227.753 104.896 227.774 104.794C227.794 104.691 227.774 104.584 227.717 104.496C227.373 103.953 226.907 103.497 226.355 103.166C225.803 102.834 225.181 102.637 224.539 102.588C224.434 102.588 224.333 102.628 224.257 102.701C224.181 102.773 224.136 102.872 224.131 102.977C224.131 103.083 224.173 103.185 224.247 103.262C224.322 103.338 224.423 103.382 224.53 103.384C225.041 103.432 225.534 103.597 225.971 103.867C226.408 104.137 226.776 104.504 227.047 104.939C227.08 104.988 227.123 105.029 227.173 105.06C227.223 105.091 227.279 105.112 227.337 105.12Z" fill="#263238"/>
<path d="M198.451 151.68L196.441 155.153C195.765 156.359 195.104 157.564 194.458 158.77C193.154 161.181 191.904 163.611 190.709 166.058C189.532 168.509 188.409 170.968 187.404 173.446C186.924 174.676 186.435 175.915 186.018 177.153L185.375 179.007L184.841 180.816L184.705 181.277L184.633 181.512C184.633 181.593 184.633 181.512 184.633 181.566C184.633 181.62 184.633 181.666 184.569 181.765C184.532 182.12 184.532 182.477 184.569 182.832C184.683 183.907 184.907 184.968 185.239 185.997C186.034 188.473 187.002 190.89 188.137 193.231C190.428 198.141 193.217 203.096 195.961 207.934L190.953 211.841C188.816 209.697 186.896 207.518 185.013 205.221C183.129 202.925 181.391 200.537 179.679 197.987C177.936 195.383 176.421 192.633 175.152 189.768C174.428 188.133 173.87 186.431 173.486 184.686C173.26 183.63 173.145 182.555 173.141 181.476C173.134 180.828 173.183 180.18 173.286 179.541L173.359 179.07L173.422 178.781L173.54 178.193C174.127 175.128 174.922 172.107 175.921 169.151C176.881 166.239 178.004 163.436 179.199 160.669C180.395 157.902 181.708 155.243 183.111 152.585C183.818 151.274 184.533 149.971 185.285 148.669C186.036 147.367 186.779 146.137 187.675 144.754L198.451 151.68Z" fill="#FFC3BD"/>
<path d="M189.812 138.975C181.843 140.142 173.63 167.848 173.63 167.848L190.781 177.334C190.781 177.334 197.727 164.15 201.041 154.366C204.509 144.112 198.351 137.728 189.812 138.975Z" fill="#6F97F6"/>
<path d="M173.983 163.942L173.259 168.012L190.88 177.696L193.226 174.341L173.983 163.942Z" fill="#6F97F6"/>
<path opacity="0.3" d="M173.983 163.942L173.259 168.012L190.88 177.696L193.226 174.341L173.983 163.942Z" fill="#263238"/>
<path d="M193.679 206.052L202.1 204.587L197.781 214.326C197.781 214.326 190.084 214.281 190.437 210.32L193.679 206.052Z" fill="#FFC3BD"/>
<path d="M208.393 209.479L204.427 217.346L197.78 214.326L202.1 204.587L208.393 209.479Z" fill="#FFC3BD"/>
<path d="M471.776 245.055H349.701C349.282 245.057 348.867 244.974 348.48 244.811C348.094 244.649 347.745 244.41 347.453 244.109C347.161 243.809 346.933 243.453 346.783 243.062C346.632 242.671 346.562 242.254 346.577 241.836L349.465 154.684C349.505 153.822 349.873 153.007 350.494 152.407C351.115 151.807 351.943 151.467 352.807 151.456H474.873C475.293 151.453 475.709 151.535 476.097 151.698C476.484 151.861 476.835 152.1 477.127 152.402C477.419 152.704 477.646 153.062 477.796 153.454C477.946 153.846 478.014 154.265 477.997 154.684L475.117 241.836C475.082 242.699 474.715 243.515 474.093 244.115C473.47 244.714 472.64 245.051 471.776 245.055Z" fill="#6F97F6"/>
<path opacity="0.6" d="M471.776 245.055H349.701C349.282 245.057 348.867 244.974 348.48 244.811C348.094 244.649 347.745 244.41 347.453 244.109C347.161 243.809 346.933 243.453 346.783 243.062C346.632 242.671 346.562 242.254 346.577 241.836L349.465 154.684C349.505 153.822 349.873 153.007 350.494 152.407C351.115 151.807 351.943 151.467 352.807 151.456H474.873C475.293 151.453 475.709 151.535 476.097 151.698C476.484 151.861 476.835 152.1 477.127 152.402C477.419 152.704 477.646 153.062 477.796 153.454C477.946 153.846 478.014 154.265 477.997 154.684L475.117 241.836C475.082 242.699 474.715 243.515 474.093 244.115C473.47 244.714 472.64 245.051 471.776 245.055Z" fill="#263238"/>
<path d="M470.78 245.055H348.705C348.286 245.057 347.871 244.974 347.484 244.811C347.098 244.649 346.749 244.41 346.457 244.109C346.165 243.809 345.937 243.452 345.787 243.062C345.636 242.671 345.566 242.254 345.581 241.836L348.469 154.684C348.509 153.822 348.877 153.007 349.498 152.407C350.119 151.807 350.947 151.466 351.811 151.456H473.877C474.297 151.454 474.712 151.538 475.099 151.701C475.486 151.864 475.836 152.103 476.128 152.405C476.42 152.706 476.647 153.064 476.797 153.455C476.947 153.847 477.017 154.265 477.001 154.684L474.112 241.836C474.077 242.697 473.712 243.512 473.091 244.112C472.471 244.711 471.643 245.049 470.78 245.055Z" fill="#6F97F6"/>
<path d="M469.204 244.901H321.774C321.049 244.9 320.339 245.104 319.724 245.488C319.109 245.871 318.615 246.42 318.297 247.071C318.216 247.241 318.179 247.429 318.19 247.618C318.202 247.806 318.261 247.988 318.363 248.147C318.464 248.306 318.604 248.437 318.77 248.527C318.936 248.617 319.122 248.664 319.311 248.662H471.667C471.857 248.665 472.044 248.62 472.211 248.531C472.378 248.441 472.52 248.311 472.622 248.151C472.725 247.992 472.785 247.809 472.797 247.62C472.809 247.431 472.772 247.242 472.69 247.071C472.371 246.419 471.875 245.87 471.259 245.487C470.642 245.103 469.93 244.9 469.204 244.901Z" fill="#6F97F6"/>
<path opacity="0.6" d="M469.204 244.901H446.566C445.84 244.9 445.128 245.103 444.511 245.487C443.895 245.87 443.399 246.419 443.08 247.071C442.998 247.242 442.961 247.431 442.973 247.62C442.985 247.809 443.045 247.992 443.147 248.151C443.25 248.311 443.391 248.441 443.559 248.531C443.726 248.62 443.913 248.665 444.103 248.662H471.622C471.812 248.665 471.999 248.62 472.166 248.531C472.333 248.441 472.475 248.311 472.577 248.151C472.68 247.992 472.74 247.809 472.752 247.62C472.764 247.431 472.727 247.242 472.645 247.071C472.33 246.426 471.841 245.882 471.233 245.498C470.625 245.115 469.923 244.908 469.204 244.901Z" fill="#263238"/>
<path opacity="0.2" d="M392.098 247.289H361.491C361.128 247.291 360.78 247.437 360.524 247.694C360.268 247.952 360.124 248.3 360.124 248.663H393.475C393.475 248.299 393.33 247.949 393.071 247.691C392.813 247.433 392.463 247.289 392.098 247.289Z" fill="black"/>
<path opacity="0.9" d="M348.497 238.682L351.213 157.842C351.229 157.506 351.373 157.189 351.616 156.955C351.858 156.722 352.18 156.589 352.517 156.585H472.953C473.117 156.584 473.279 156.616 473.43 156.679C473.58 156.742 473.717 156.835 473.83 156.953C473.944 157.071 474.032 157.21 474.09 157.363C474.148 157.516 474.174 157.679 474.166 157.842L471.45 238.682C471.438 239.018 471.297 239.337 471.056 239.571C470.814 239.805 470.491 239.937 470.155 239.939H349.719C349.555 239.94 349.393 239.909 349.241 239.845C349.09 239.782 348.953 239.689 348.839 239.572C348.725 239.454 348.635 239.315 348.577 239.162C348.518 239.009 348.491 238.846 348.497 238.682Z" fill="white"/>
<path d="M434.115 239.939H417.516L436.65 156.585H453.249L434.115 239.939Z" fill="white"/>
<path d="M362.043 239.939H356.067L375.201 156.585H381.168L362.043 239.939Z" fill="white"/>
<path d="M447.725 239.939H441.748L460.882 156.585H466.859L447.725 239.939Z" fill="white"/>
<path opacity="0.4" d="M413.704 154.16C413.682 154.405 413.57 154.632 413.389 154.799C413.208 154.966 412.972 155.061 412.726 155.064C412.486 155.064 412.256 154.969 412.086 154.799C411.916 154.63 411.821 154.4 411.821 154.16C411.839 153.914 411.95 153.683 412.132 153.516C412.313 153.348 412.551 153.255 412.799 153.256C413.039 153.256 413.269 153.351 413.439 153.52C413.609 153.69 413.704 153.92 413.704 154.16Z" fill="black"/>
<path d="M404.902 115.432C403.481 121.617 401.869 132.947 406.061 137.07C406.061 137.07 404.25 142.189 392.75 142.189C380.073 142.189 386.819 137.07 386.819 137.07C393.782 135.425 393.782 130.307 392.741 125.505L404.902 115.432Z" fill="#B55B52"/>
<path d="M423.33 144.81C424.235 146.194 424.978 147.406 425.72 148.726C426.463 150.046 427.196 151.33 427.903 152.641C429.297 155.282 430.619 157.967 431.815 160.725C433.01 163.483 434.133 166.295 435.084 169.207C436.086 172.163 436.884 175.185 437.474 178.25L437.592 178.837L437.646 179.127L437.728 179.597C437.822 180.238 437.871 180.884 437.873 181.532C437.86 182.611 437.745 183.685 437.528 184.742C437.141 186.488 436.58 188.19 435.853 189.824C434.587 192.691 433.072 195.441 431.326 198.044C429.641 200.567 427.866 202.954 425.983 205.278C424.115 207.582 422.133 209.791 420.043 211.897L415.044 207.991C417.761 203.153 420.577 198.197 422.868 193.287C424 190.947 424.965 188.529 425.757 186.053C426.089 185.024 426.313 183.964 426.427 182.888C426.467 182.534 426.467 182.176 426.427 181.821C426.427 181.722 426.427 181.632 426.354 181.623V181.568L426.291 181.333L426.155 180.872L425.612 179.063L424.978 177.21C424.552 175.971 424.072 174.732 423.583 173.502C422.578 171.025 421.455 168.565 420.287 166.115C419.119 163.664 417.833 161.241 416.538 158.826C415.898 157.621 415.237 156.415 414.555 155.209L412.545 151.746L423.33 144.81Z" fill="#B65B52"/>
<path d="M421.147 138.977C429.116 140.144 437.32 167.85 437.32 167.85L420.179 177.336C420.179 177.336 413.224 164.197 409.919 154.368C406.442 144.114 412.635 137.73 421.147 138.977Z" fill="#263238"/>
<path opacity="0.3" d="M415.959 154.161L414.664 166.007C415.959 168.855 417.227 171.432 418.214 173.467C418.585 168.72 418.576 160.997 415.959 154.161Z" fill="black"/>
<path d="M436.967 163.945L437.701 168.014L420.079 177.699L417.734 174.344L436.967 163.945Z" fill="#6F97F6"/>
<path opacity="0.3" d="M436.967 163.945L437.701 168.014L420.079 177.699L417.734 174.344L436.967 163.945Z" fill="#263238"/>
<path d="M417.281 206.056L408.85 204.591L413.179 214.33C413.179 214.33 420.867 214.285 420.513 210.324L417.281 206.056Z" fill="#B55B52"/>
<path d="M402.566 209.483L406.523 217.35L413.179 214.33L408.85 204.591L402.566 209.483Z" fill="#B55B52"/>
<path d="M373.698 139.412C373.698 139.412 362.831 164.93 370.664 212.458H415.941C416.493 205.522 413.296 171.676 421.138 138.978C416.16 138.014 411.123 137.377 406.061 137.07C399.652 136.699 393.227 136.699 386.819 137.07C382.391 137.511 378.004 138.294 373.698 139.412Z" fill="#263238"/>
<path opacity="0.3" d="M368.853 161.24C368.195 166.959 367.859 172.71 367.848 178.466C374.006 174.46 376.197 165.273 377.066 158.618L368.853 161.24Z" fill="black"/>
<path d="M379.837 151.793C378.107 154.759 376.36 157.49 374.53 160.275C372.701 163.06 370.827 165.764 368.862 168.413C364.915 173.888 360.588 179.079 355.913 183.948C353.433 186.519 350.74 188.875 347.862 190.992L346.685 191.806C346.178 192.114 345.653 192.448 345.164 192.71C344.221 193.196 343.243 193.613 342.239 193.958C340.449 194.551 338.618 195.01 336.761 195.333C333.33 195.893 329.859 196.168 326.383 196.156C324.69 196.156 322.997 196.156 321.321 195.984C319.646 195.812 317.989 195.74 316.25 195.486V189.157C319.302 188.632 322.471 188.044 325.496 187.402C327.017 187.086 328.529 186.742 330.024 186.362C331.518 185.983 332.939 185.585 334.298 185.124C335.596 184.72 336.861 184.218 338.083 183.623C338.585 183.371 339.071 183.09 339.541 182.782C339.767 182.646 339.903 182.501 340.084 182.375L340.863 181.76C343.077 179.886 345.15 177.852 347.066 175.674C351.128 170.996 354.928 166.096 358.448 160.998C360.259 158.43 362.007 155.808 363.764 153.185C365.52 150.563 367.214 147.841 368.826 145.273L379.837 151.793Z" fill="#B65B52"/>
<path d="M384.03 147.017C384.935 154.956 367.205 174.216 367.205 174.216L353.178 163.257C356.931 156.907 361.087 150.802 365.62 144.982C372.901 135.948 383.025 138.037 384.03 147.017Z" fill="#263238"/>
<path d="M354.211 159.576L352.861 163.483L367.196 175.238L370.039 172.299L354.211 159.576Z" fill="#6F97F6"/>
<path opacity="0.3" d="M354.211 159.576L352.861 163.483L367.196 175.238L370.039 172.299L354.211 159.576Z" fill="#263238"/>
<path d="M316.251 189.182L306.154 189.327L310.22 198.767C311.469 199.174 317.047 197.194 319.855 194.101L316.251 189.182Z" fill="#B55B52"/>
<path d="M299.191 194.219L304.705 201.128L310.22 198.759L306.154 189.327L299.191 194.219Z" fill="#B55B52"/>
<path d="M383.976 108.134C383.876 108.812 383.441 109.318 382.998 109.264C382.554 109.21 382.273 108.631 382.364 107.962C382.454 107.293 382.907 106.777 383.351 106.823C383.795 106.868 384.075 107.428 383.976 108.134Z" fill="#263238"/>
<path d="M384.166 108.714C383.053 110.696 381.68 112.521 380.082 114.139C381.123 115.387 383.242 115.098 383.242 115.098L384.166 108.714Z" fill="#A02724"/>
<path d="M383.016 113.704C381.503 113.704 380.136 111.524 379.892 108.739C379.661 107.191 380.037 105.614 380.942 104.336C381.097 104.149 381.29 103.997 381.509 103.891C381.728 103.785 381.967 103.727 382.21 103.721C383.722 103.721 385.089 105.891 385.334 108.676C385.574 110.225 385.204 111.807 384.302 113.089C384.145 113.274 383.951 113.424 383.733 113.53C383.515 113.636 383.276 113.695 383.034 113.704H383.016ZM382.201 104.173C382.026 104.183 381.855 104.229 381.699 104.308C381.543 104.387 381.406 104.498 381.295 104.634C380.486 105.826 380.162 107.281 380.39 108.703C380.607 111.172 381.829 113.224 383.106 113.224C383.282 113.213 383.453 113.165 383.608 113.084C383.764 113.003 383.902 112.891 384.012 112.754C384.826 111.568 385.15 110.113 384.917 108.694C384.655 106.253 383.432 104.173 382.201 104.173Z" fill="#263238"/>
<path d="M386.375 105.122C386.469 105.129 386.562 105.104 386.638 105.049C386.682 105.021 386.72 104.984 386.75 104.941C386.78 104.898 386.801 104.849 386.812 104.798C386.823 104.747 386.823 104.694 386.814 104.642C386.804 104.591 386.784 104.542 386.756 104.498C386.412 103.954 385.945 103.499 385.393 103.167C384.841 102.836 384.219 102.638 383.577 102.59C383.472 102.59 383.371 102.63 383.295 102.703C383.22 102.775 383.175 102.874 383.17 102.979C383.17 103.085 383.212 103.187 383.286 103.263C383.36 103.339 383.462 103.383 383.568 103.386C384.08 103.434 384.573 103.599 385.009 103.869C385.446 104.139 385.814 104.506 386.086 104.941C386.119 104.989 386.162 105.031 386.212 105.062C386.261 105.093 386.317 105.113 386.375 105.122Z" fill="#263238"/>
<path d="M407.139 108.016C405.418 116.254 404.839 121.146 400.003 124.934C398.448 126.183 396.58 126.983 394.603 127.248C392.625 127.513 390.613 127.233 388.782 126.439C386.952 125.645 385.374 124.367 384.219 122.742C383.064 121.117 382.375 119.208 382.228 117.221C381.521 109.58 384.446 97.3999 393.094 94.9946C394.95 94.4296 396.922 94.3609 398.812 94.7953C400.703 95.2298 402.446 96.1522 403.868 97.4703C405.29 98.7885 406.34 100.456 406.914 102.307C407.488 104.157 407.566 106.126 407.139 108.016Z" fill="#B55B52"/>
<path d="M418.385 239.937C418.81 230.712 418.003 221.47 415.986 212.457H386.773C389.042 221.44 390.164 230.673 390.115 239.937H418.385Z" fill="#6F97F6"/>
<path opacity="0.3" d="M418.385 239.937C418.81 230.712 418.003 221.47 415.986 212.457H386.773C389.042 221.44 390.164 230.673 390.115 239.937H418.385Z" fill="white"/>
<path d="M389.246 110.494C387.634 109.689 385.623 101.65 386.176 98.7928C386.728 95.9353 393.221 92.8609 399.605 94.0183C405.989 95.1758 408.733 97.4093 409.973 103.215C411.25 109.237 406.596 119.265 404.295 120.043C402.932 120.525 401.482 120.711 400.04 120.59C398.599 120.468 397.2 120.041 395.937 119.337C393.882 118.081 392.813 108.839 389.246 110.494Z" fill="#263238"/>
<path d="M387.552 101.678C384.437 101.859 381.467 96.9032 384.329 92.4814C385.15 91.2211 386.319 90.2241 387.694 89.6098C389.068 88.9956 390.591 88.7901 392.08 89.0181C392.08 89.0181 390.776 91.5591 395.123 91.0256C399.469 90.4921 407.565 91.7038 410.39 94.7421C413.885 98.4857 411.775 105.846 406.514 104.038C401.253 102.229 387.552 101.678 387.552 101.678Z" fill="#263238"/>
<path d="M386.719 101.804C386.067 101.773 385.43 101.603 384.849 101.307C384.268 101.011 383.757 100.594 383.35 100.085C382.537 99.1139 382.009 97.9357 381.827 96.6823C381.645 95.4289 381.815 94.1496 382.318 92.987C382.329 92.9591 382.346 92.9337 382.367 92.9123C382.388 92.8908 382.413 92.8737 382.441 92.8619C382.469 92.8502 382.499 92.844 382.529 92.8438C382.559 92.8435 382.589 92.8492 382.617 92.8605C382.645 92.8717 382.67 92.8884 382.692 92.9095C382.713 92.9306 382.73 92.9557 382.742 92.9834C382.754 93.0111 382.76 93.0409 382.76 93.071C382.761 93.1011 382.755 93.131 382.744 93.1589C382.266 94.242 382.101 95.4372 382.27 96.6088C382.438 97.7804 382.931 98.8815 383.694 99.787C384.114 100.348 384.679 100.783 385.329 101.044C385.979 101.306 386.689 101.384 387.38 101.27C387.437 101.259 387.497 101.269 387.547 101.299C387.598 101.329 387.635 101.377 387.652 101.433C387.666 101.491 387.657 101.553 387.626 101.605C387.596 101.658 387.547 101.696 387.489 101.713C387.237 101.774 386.978 101.805 386.719 101.804Z" fill="#263238"/>
<path d="M394.362 109.453C394.494 111.589 393.804 113.695 392.433 115.34C390.622 117.483 388.204 116.19 387.471 113.613C386.81 111.289 386.964 107.383 389.399 106.18C391.835 104.977 394.172 106.84 394.362 109.453Z" fill="#B55B52"/>
<path d="M366.861 239.937H399.324C400.895 230.865 401.281 221.628 400.474 212.457H370.682C370.682 212.457 369.007 224.059 366.861 239.937Z" fill="#6F97F6"/>
<path opacity="0.3" d="M366.861 239.937H399.324C400.895 230.865 401.281 221.628 400.474 212.457H370.682C370.682 212.457 369.007 224.059 366.861 239.937Z" fill="white"/>
<path d="M63.4922 186.559C58.5233 185.889 53.5148 185.213 48.4137 184.923C38.0049 183.694 27.4637 184.35 17.3113 186.858C16.4809 187.102 15.7837 187.66 15.3717 188.41C14.9596 189.16 14.8662 190.041 15.1116 190.862C15.2358 191.267 15.4403 191.644 15.7133 191.972C15.9862 192.299 16.3222 192.571 16.7018 192.77C17.0815 192.969 17.4972 193.093 17.9249 193.133C18.3526 193.173 18.7839 193.13 19.1937 193.005C28.5257 190.75 38.2012 190.167 47.7577 191.285C108.232 196.339 158.744 218.842 206.827 262.04C221.823 275.566 234.492 291.396 244.336 308.909C244.515 309.308 244.774 309.668 245.098 309.966C245.422 310.264 245.804 310.494 246.221 310.642C246.638 310.79 247.081 310.852 247.523 310.826C247.965 310.799 248.396 310.684 248.79 310.487C249.184 310.29 249.533 310.016 249.814 309.681C250.096 309.346 250.305 308.958 250.429 308.54C250.552 308.122 250.588 307.683 250.533 307.251C250.477 306.818 250.333 306.401 250.109 306.024C239.997 287.845 226.874 271.446 211.283 257.505C166.191 216.741 118.865 194.03 63.4922 186.559Z" fill="#FBBC79"/>
<path d="M260.496 286.324C259.967 286.251 259.427 286.308 258.926 286.49C258.425 286.672 257.978 286.973 257.625 287.367C257.272 287.76 257.023 288.234 256.9 288.746C256.778 289.258 256.786 289.792 256.924 290.301C260.01 301.752 259.369 313.852 255.09 324.893C243.66 314.885 231.202 306.077 217.919 298.616C217.548 298.392 217.135 298.242 216.705 298.178C216.275 298.113 215.837 298.134 215.416 298.239C214.995 298.344 214.6 298.531 214.255 298.789C213.91 299.047 213.621 299.372 213.405 299.742C213.19 300.113 213.053 300.523 213.001 300.947C212.95 301.372 212.986 301.803 213.107 302.214C213.228 302.626 213.432 303.009 213.706 303.343C213.98 303.676 214.319 303.952 214.702 304.154C228.874 312.127 242.077 321.67 254.051 332.597C254.427 332.925 254.875 333.164 255.359 333.296C255.843 333.428 256.351 333.449 256.844 333.358C257.337 333.267 257.801 333.066 258.202 332.771C258.603 332.475 258.929 332.093 259.156 331.653C265.669 318.285 267.108 303.046 263.214 288.681C263.048 288.069 262.701 287.517 262.217 287.098C261.734 286.678 261.135 286.409 260.496 286.324Z" fill="#FBBC79"/>
</svg>
