<svg width="557" height="517" viewBox="0 0 557 517" fill="none" xmlns="http://www.w3.org/2000/svg">
<circle cx="19" cy="5" r="5" fill="#172A58"/>
<circle cx="19" cy="35" r="5" fill="#172A58"/>
<circle cx="19" cy="65" r="5" fill="#172A58"/>
<circle cx="19" cy="95" r="5" fill="#172A58"/>
<circle cx="19" cy="125" r="5" fill="#172A58"/>
<circle cx="19" cy="155" r="5" fill="#172A58"/>
<circle cx="19" cy="185" r="5" fill="#172A58"/>
<circle cx="19" cy="215" r="5" fill="#172A58"/>
<circle cx="19" cy="245" r="5" fill="#172A58"/>
<circle cx="19" cy="275" r="5" fill="#172A58"/>
<circle cx="19" cy="305" r="5" fill="#172A58"/>
<circle cx="19" cy="335" r="5" fill="#172A58"/>
<circle cx="49" cy="5" r="5" fill="#172A58"/>
<circle cx="49" cy="35" r="5" fill="#172A58"/>
<circle cx="49" cy="65" r="5" fill="#172A58"/>
<circle cx="49" cy="95" r="5" fill="#172A58"/>
<circle cx="49" cy="125" r="5" fill="#172A58"/>
<circle cx="49" cy="155" r="5" fill="#172A58"/>
<circle cx="49" cy="185" r="5" fill="#172A58"/>
<circle cx="49" cy="215" r="5" fill="#172A58"/>
<circle cx="49" cy="245" r="5" fill="#172A58"/>
<circle cx="49" cy="275" r="5" fill="#172A58"/>
<circle cx="49" cy="305" r="5" fill="#172A58"/>
<circle cx="49" cy="335" r="5" fill="#172A58"/>
<circle cx="79" cy="5" r="5" fill="#172A58"/>
<circle cx="79" cy="35" r="5" fill="#172A58"/>
<circle cx="79" cy="65" r="5" fill="#172A58"/>
<circle cx="79" cy="95" r="5" fill="#172A58"/>
<circle cx="79" cy="125" r="5" fill="#172A58"/>
<circle cx="79" cy="155" r="5" fill="#172A58"/>
<circle cx="79" cy="185" r="5" fill="#172A58"/>
<circle cx="79" cy="215" r="5" fill="#172A58"/>
<circle cx="79" cy="245" r="5" fill="#172A58"/>
<circle cx="79" cy="275" r="5" fill="#172A58"/>
<circle cx="79" cy="305" r="5" fill="#172A58"/>
<circle cx="79" cy="335" r="5" fill="#172A58"/>
<circle cx="109" cy="5" r="5" fill="#172A58"/>
<circle cx="109" cy="35" r="5" fill="#172A58"/>
<circle cx="109" cy="65" r="5" fill="#172A58"/>
<circle cx="109" cy="95" r="5" fill="#172A58"/>
<circle cx="109" cy="125" r="5" fill="#172A58"/>
<circle cx="109" cy="155" r="5" fill="#172A58"/>
<circle cx="109" cy="185" r="5" fill="#172A58"/>
<circle cx="109" cy="215" r="5" fill="#172A58"/>
<circle cx="109" cy="245" r="5" fill="#172A58"/>
<circle cx="109" cy="275" r="5" fill="#172A58"/>
<circle cx="109" cy="305" r="5" fill="#172A58"/>
<circle cx="109" cy="335" r="5" fill="#172A58"/>
<circle cx="139" cy="5" r="5" fill="#172A58"/>
<circle cx="139" cy="35" r="5" fill="#172A58"/>
<circle cx="139" cy="65" r="5" fill="#172A58"/>
<circle cx="139" cy="95" r="5" fill="#172A58"/>
<circle cx="139" cy="125" r="5" fill="#172A58"/>
<circle cx="139" cy="155" r="5" fill="#172A58"/>
<circle cx="139" cy="185" r="5" fill="#172A58"/>
<circle cx="139" cy="215" r="5" fill="#172A58"/>
<circle cx="139" cy="245" r="5" fill="#172A58"/>
<circle cx="139" cy="275" r="5" fill="#172A58"/>
<circle cx="139" cy="305" r="5" fill="#172A58"/>
<circle cx="139" cy="335" r="5" fill="#172A58"/>
<circle cx="169" cy="5" r="5" fill="#172A58"/>
<circle cx="169" cy="35" r="5" fill="#172A58"/>
<circle cx="169" cy="65" r="5" fill="#172A58"/>
<circle cx="169" cy="95" r="5" fill="#172A58"/>
<circle cx="169" cy="125" r="5" fill="#172A58"/>
<circle cx="169" cy="155" r="5" fill="#172A58"/>
<circle cx="169" cy="185" r="5" fill="#172A58"/>
<circle cx="169" cy="215" r="5" fill="#172A58"/>
<circle cx="169" cy="245" r="5" fill="#172A58"/>
<circle cx="169" cy="275" r="5" fill="#172A58"/>
<circle cx="169" cy="305" r="5" fill="#172A58"/>
<circle cx="169" cy="335" r="5" fill="#172A58"/>
<circle cx="199" cy="5" r="5" fill="#172A58"/>
<circle cx="229" cy="5" r="5" fill="#172A58"/>
<circle cx="259" cy="5" r="5" fill="#172A58"/>
<circle cx="289" cy="5" r="5" fill="#172A58"/>
<circle cx="319" cy="5" r="5" fill="#172A58"/>
<circle cx="349" cy="5" r="5" fill="#172A58"/>
<circle cx="199" cy="35" r="5" fill="#172A58"/>
<circle cx="229" cy="35" r="5" fill="#172A58"/>
<circle cx="259" cy="35" r="5" fill="#172A58"/>
<circle cx="289" cy="35" r="5" fill="#172A58"/>
<circle cx="319" cy="35" r="5" fill="#172A58"/>
<circle cx="349" cy="35" r="5" fill="#172A58"/>
<circle cx="199" cy="65" r="5" fill="#172A58"/>
<circle cx="229" cy="65" r="5" fill="#172A58"/>
<circle cx="259" cy="65" r="5" fill="#172A58"/>
<circle cx="289" cy="65" r="5" fill="#172A58"/>
<circle cx="319" cy="65" r="5" fill="#172A58"/>
<circle cx="349" cy="65" r="5" fill="#172A58"/>
<circle cx="199" cy="95" r="5" fill="#172A58"/>
<circle cx="229" cy="95" r="5" fill="#172A58"/>
<circle cx="259" cy="95" r="5" fill="#172A58"/>
<circle cx="289" cy="95" r="5" fill="#172A58"/>
<circle cx="319" cy="95" r="5" fill="#172A58"/>
<circle cx="349" cy="95" r="5" fill="#172A58"/>
<circle cx="199" cy="125" r="5" fill="#172A58"/>
<circle cx="229" cy="125" r="5" fill="#172A58"/>
<circle cx="259" cy="125" r="5" fill="#172A58"/>
<circle cx="289" cy="125" r="5" fill="#172A58"/>
<circle cx="319" cy="125" r="5" fill="#172A58"/>
<circle cx="349" cy="125" r="5" fill="#172A58"/>
<circle cx="199" cy="155" r="5" fill="#172A58"/>
<circle cx="229" cy="155" r="5" fill="#172A58"/>
<circle cx="259" cy="155" r="5" fill="#172A58"/>
<circle cx="289" cy="155" r="5" fill="#172A58"/>
<circle cx="319" cy="155" r="5" fill="#172A58"/>
<circle cx="349" cy="155" r="5" fill="#172A58"/>
<circle cx="199" cy="185" r="5" fill="#172A58"/>
<circle cx="229" cy="185" r="5" fill="#172A58"/>
<circle cx="259" cy="185" r="5" fill="#172A58"/>
<circle cx="289" cy="185" r="5" fill="#172A58"/>
<circle cx="319" cy="185" r="5" fill="#172A58"/>
<circle cx="349" cy="185" r="5" fill="#172A58"/>
<circle cx="199" cy="215" r="5" fill="#172A58"/>
<circle cx="229" cy="215" r="5" fill="#172A58"/>
<circle cx="259" cy="215" r="5" fill="#172A58"/>
<circle cx="289" cy="215" r="5" fill="#172A58"/>
<circle cx="319" cy="215" r="5" fill="#172A58"/>
<circle cx="349" cy="215" r="5" fill="#172A58"/>
<circle cx="199" cy="245" r="5" fill="#172A58"/>
<circle cx="229" cy="245" r="5" fill="#172A58"/>
<circle cx="259" cy="245" r="5" fill="#172A58"/>
<circle cx="289" cy="245" r="5" fill="#172A58"/>
<circle cx="319" cy="245" r="5" fill="#172A58"/>
<circle cx="349" cy="245" r="5" fill="#172A58"/>
<circle cx="199" cy="275" r="5" fill="#172A58"/>
<circle cx="229" cy="275" r="5" fill="#172A58"/>
<circle cx="259" cy="275" r="5" fill="#172A58"/>
<circle cx="289" cy="275" r="5" fill="#172A58"/>
<circle cx="319" cy="275" r="5" fill="#172A58"/>
<circle cx="349" cy="275" r="5" fill="#172A58"/>
<circle cx="199" cy="305" r="5" fill="#172A58"/>
<circle cx="229" cy="305" r="5" fill="#172A58"/>
<circle cx="259" cy="305" r="5" fill="#172A58"/>
<circle cx="289" cy="305" r="5" fill="#172A58"/>
<circle cx="319" cy="305" r="5" fill="#172A58"/>
<circle cx="349" cy="305" r="5" fill="#172A58"/>
<circle cx="199" cy="335" r="5" fill="#172A58"/>
<circle cx="229" cy="335" r="5" fill="#172A58"/>
<circle cx="259" cy="335" r="5" fill="#172A58"/>
<circle cx="289" cy="335" r="5" fill="#172A58"/>
<circle cx="319" cy="335" r="5" fill="#172A58"/>
<circle cx="349" cy="335" r="5" fill="#172A58"/>
<circle cx="516" cy="88" r="40" stroke="#7AC6BD" stroke-width="2"/>
<circle cx="154.5" cy="430.5" r="66.5" fill="#FBBC79"/>
<circle cx="533" cy="158" r="13" fill="#EE795F"/>
<path d="M450.223 296.782H191.243C190.419 296.779 189.63 296.451 189.047 295.868C188.464 295.285 188.136 294.496 188.133 293.672C188.136 292.847 188.464 292.058 189.047 291.475C189.63 290.892 190.419 290.564 191.243 290.561H450.223C451.047 290.564 451.837 290.892 452.42 291.475C453.002 292.058 453.331 292.847 453.333 293.672C453.331 294.496 453.002 295.285 452.42 295.868C451.837 296.451 451.047 296.779 450.223 296.782Z" fill="#407BFF"/>
<path opacity="0.3" d="M450.224 296.782H389.598C388.774 296.779 387.984 296.451 387.402 295.868C386.819 295.285 386.49 294.496 386.488 293.672C386.49 292.847 386.819 292.058 387.402 291.475C387.984 290.892 388.774 290.564 389.598 290.561H450.224C451.048 290.564 451.838 290.892 452.421 291.475C453.003 292.058 453.332 292.847 453.334 293.672C453.332 294.496 453.003 295.285 452.421 295.868C451.838 296.451 451.048 296.779 450.224 296.782Z" fill="#263238"/>
<path d="M443.648 304.581H244.473V326.259H443.648V304.581Z" fill="#263238"/>
<path opacity="0.1" d="M443.648 304.581H244.473V326.259H443.648V304.581Z" fill="white"/>
<path d="M440.753 434.453H446.712L446.469 296.781H438.213L440.753 434.453Z" fill="#263238"/>
<path opacity="0.1" d="M440.753 434.453H446.712L446.469 296.781H438.213L440.753 434.453Z" fill="white"/>
<path d="M385.833 434.453H379.865L393.352 296.781H401.608L385.833 434.453Z" fill="#263238"/>
<path opacity="0.2" d="M385.833 434.453H379.865L393.352 296.781H401.608L385.833 434.453Z" fill="white"/>
<path d="M242.401 434.453H248.36L248.117 296.781H239.86L242.401 434.453Z" fill="#263238"/>
<path opacity="0.1" d="M242.401 434.453H248.36L248.117 296.781H239.86L242.401 434.453Z" fill="white"/>
<path d="M187.48 434.453H181.512L194.999 296.781H203.256L187.48 434.453Z" fill="#263238"/>
<path opacity="0.2" d="M187.48 434.453H181.512L194.999 296.781H203.256L187.48 434.453Z" fill="white"/>
<path d="M355.228 290.562H341.479L335.978 263.681H349.726L355.228 290.562Z" fill="#263238"/>
<path d="M373.468 285.022H313.822C313.359 285.027 312.899 284.936 312.472 284.754C312.045 284.573 311.661 284.304 311.343 283.966C311.025 283.628 310.781 283.228 310.626 282.791C310.471 282.354 310.408 281.889 310.441 281.426L312.72 243.665C312.79 242.697 313.221 241.791 313.926 241.126C314.632 240.46 315.561 240.083 316.531 240.069H376.186C376.649 240.065 377.108 240.157 377.535 240.34C377.961 240.522 378.345 240.79 378.662 241.128C378.98 241.466 379.224 241.865 379.38 242.302C379.535 242.738 379.599 243.202 379.567 243.665L377.288 281.426C377.216 282.395 376.783 283.301 376.076 283.966C375.369 284.632 374.439 285.009 373.468 285.022Z" fill="#263238"/>
<path d="M372.535 285.022H312.89C312.426 285.027 311.966 284.936 311.539 284.754C311.112 284.573 310.728 284.304 310.41 283.966C310.092 283.628 309.848 283.228 309.693 282.791C309.538 282.354 309.475 281.889 309.509 281.426L311.788 243.665C311.858 242.697 312.288 241.791 312.993 241.126C313.699 240.46 314.628 240.083 315.598 240.069H375.253C375.716 240.065 376.176 240.157 376.602 240.34C377.028 240.522 377.412 240.79 377.729 241.128C378.047 241.466 378.291 241.865 378.447 242.302C378.602 242.738 378.666 243.202 378.634 243.665L376.355 281.426C376.283 282.395 375.85 283.301 375.143 283.966C374.436 284.632 373.506 285.009 372.535 285.022Z" fill="#F99F8B"/>
<path d="M312.88 283.154C312.672 283.156 312.467 283.115 312.276 283.035C312.085 282.954 311.912 282.836 311.768 282.687C311.628 282.532 311.52 282.351 311.451 282.154C311.382 281.956 311.353 281.747 311.367 281.538L313.646 243.777C313.68 243.278 313.899 242.811 314.26 242.465C314.621 242.12 315.098 241.922 315.598 241.909H375.252C375.461 241.906 375.667 241.946 375.859 242.027C376.051 242.109 376.224 242.229 376.367 242.382C376.509 242.534 376.618 242.714 376.687 242.911C376.756 243.108 376.782 243.317 376.765 243.525L374.486 281.286C374.454 281.785 374.235 282.254 373.874 282.6C373.512 282.946 373.034 283.144 372.534 283.154H312.88Z" fill="white" fill-opacity="0.6"/>
<path opacity="0.2" d="M339.077 240.069L342.953 253.341L354.46 240.069H339.077Z" fill="black"/>
<path d="M246.362 207.846C246.455 208.565 246.904 209.107 247.38 209.07C247.856 209.032 248.155 208.416 248.062 207.697C247.968 206.978 247.52 206.436 247.053 206.473C246.586 206.511 246.278 207.146 246.362 207.846Z" fill="#263238"/>
<path d="M247.144 208.92C247.985 210.784 249.072 212.527 250.376 214.103C249.348 215.14 247.471 214.72 247.471 214.72L247.144 208.92Z" fill="#A02724"/>
<path d="M243.98 205.109C243.909 205.122 243.836 205.122 243.765 205.109C243.661 205.064 243.579 204.98 243.536 204.876C243.492 204.771 243.491 204.654 243.531 204.549C243.774 203.926 244.165 203.373 244.669 202.935C245.173 202.497 245.777 202.189 246.427 202.036C246.481 202.027 246.537 202.028 246.591 202.041C246.645 202.053 246.696 202.076 246.741 202.108C246.787 202.14 246.825 202.181 246.854 202.228C246.884 202.275 246.903 202.327 246.912 202.382C246.932 202.493 246.906 202.607 246.841 202.7C246.777 202.793 246.678 202.856 246.567 202.877C246.058 203 245.587 203.247 245.196 203.595C244.805 203.944 244.506 204.384 244.325 204.875C244.291 204.939 244.241 204.994 244.181 205.035C244.121 205.075 244.052 205.101 243.98 205.109Z" fill="#263238"/>
<path d="M225.197 219.12L230.801 223.416L238.451 229.272C238.032 230.152 237.778 231.102 237.704 232.074C237.433 234.222 237.162 235.81 241.935 237.127C242.442 237.248 242.903 237.512 243.264 237.888C243.625 238.264 243.87 238.736 243.971 239.247C244.158 240.518 243.382 242.049 238.974 242.806C234.704 243.444 230.342 242.701 226.524 240.686C224.656 239.752 224.656 238.631 225.44 236.735C227.794 231.346 226.654 224.471 225.197 219.12Z" fill="#B55B52"/>
<path d="M218.759 238.434C219.835 236.363 220.723 234.2 221.411 231.97C221.411 231.97 235.608 231.195 240.297 232.596C244.986 233.997 247.9 240.068 247.9 240.068L218.759 238.434Z" fill="#3B5CAA"/>
<path d="M224.701 248.998C224.356 250.044 223.973 251.323 223.608 252.5L222.553 256.143C221.899 258.571 221.264 261.009 220.769 263.437C220.242 265.812 219.84 268.212 219.564 270.629C219.276 272.849 219.207 275.092 219.359 277.326C219.414 278.271 219.558 279.209 219.788 280.128C219.844 280.315 219.891 280.52 219.956 280.698L220.143 281.202C220.099 281.112 220.049 281.024 219.994 280.941C219.898 280.804 219.796 280.673 219.686 280.548C219.565 280.404 219.427 280.275 219.275 280.165C219.088 280.035 219.06 280.053 219.097 280.1C219.371 280.297 219.665 280.463 219.975 280.595C220.395 280.782 220.909 280.969 221.423 281.146C222.478 281.501 223.646 281.828 224.851 282.145C229.67 283.36 234.928 284.303 240.056 285.396L239.888 291.868C237.149 292.234 234.393 292.461 231.631 292.55C228.829 292.652 226.023 292.605 223.225 292.41C221.744 292.311 220.269 292.13 218.808 291.868C218.042 291.728 217.248 291.569 216.407 291.336C215.44 291.086 214.502 290.739 213.605 290.299C212.942 289.98 212.315 289.588 211.737 289.132C211.328 288.806 210.95 288.443 210.607 288.048C210.393 287.795 210.193 287.53 210.009 287.254C209.916 287.096 209.813 286.937 209.729 286.778L209.608 286.554L208.963 285.237C208.767 284.798 208.608 284.368 208.44 283.929C207.851 282.294 207.425 280.605 207.17 278.886C206.236 272.394 206.974 266.604 207.945 260.972C208.468 258.17 209.085 255.368 209.813 252.706C210.187 251.351 210.579 249.997 210.999 248.661C211.42 247.326 211.868 246.037 212.41 244.571L224.701 248.998Z" fill="#B55B52"/>
<path d="M216.061 237.275C224.887 234.94 230.127 242.169 227.138 254.087C224.15 266.005 223.15 266.453 223.15 266.453L204.947 263.418C207.188 251.743 207.011 239.657 216.061 237.275Z" fill="#3B5CAA"/>
<path d="M244.577 282.808L243.204 282.686C239.3 282.686 238.627 283.751 236.227 285.983L235.293 290.896C241.597 294.119 244.978 290.579 244.988 290.579H250.825L248.771 285.909C248.412 285.065 247.834 284.332 247.096 283.786C246.359 283.241 245.489 282.903 244.577 282.808Z" fill="#B55B52"/>
<path d="M222.785 209.826C224.373 218.334 224.868 223.397 229.744 227.198C237.066 232.905 247.153 227.478 248.143 218.624C249.031 210.657 246.275 198.076 237.477 195.844C235.515 195.359 233.462 195.377 231.509 195.895C229.555 196.413 227.763 197.415 226.299 198.808C224.835 200.202 223.746 201.942 223.132 203.867C222.517 205.793 222.398 207.842 222.785 209.826Z" fill="#B55B52"/>
<path d="M239.643 212.796C245.714 212.31 243.94 205.912 242.063 204.576C244.911 203.493 246.873 198.972 244.136 195.872C245.742 191.678 241.147 186.625 233.087 187.382C227.203 187.923 226.549 191.033 226.549 191.033C226.549 191.033 219.497 190.296 216.564 196.114C214.061 201.102 217.097 203.764 217.097 203.764C217.097 203.764 211.829 205.296 213.286 212.17C214.836 219.586 220.534 217.867 220.534 217.867C220.534 217.867 219.254 224.667 226.96 224.76C233.619 224.844 233.703 219.857 233.703 219.857C233.703 219.857 242.333 219.053 239.643 212.796Z" fill="#263238"/>
<path d="M235.124 213.291C235.805 215.116 237.135 216.626 238.86 217.531C241.083 218.671 242.783 216.308 242.39 213.879C242.035 211.703 240.139 208.91 237.795 208.78C235.451 208.649 234.293 211.031 235.124 213.291Z" fill="#B55B52"/>
<path d="M325.676 423.759L333.979 420.387L328.113 400.446L319.81 403.808L325.676 423.759Z" fill="#B55B52"/>
<path opacity="0.2" d="M322.659 413.485L331.046 410.402L328.113 400.446L319.81 403.808L322.659 413.485Z" fill="black"/>
<path d="M333.261 417.062L323.762 420.359C323.682 420.384 323.608 420.424 323.544 420.477C323.48 420.53 323.426 420.595 323.387 420.669C323.348 420.743 323.324 420.824 323.316 420.907C323.308 420.99 323.317 421.073 323.342 421.153L325.49 428.831C325.628 429.226 325.916 429.551 326.291 429.736C326.667 429.922 327.1 429.952 327.498 429.821C330.776 428.607 332.103 427.953 336.156 426.197C340.146 424.528 344.049 422.657 347.85 420.593C351.016 418.725 349.111 415.54 347.57 416.063C343.918 417.296 337.931 418.099 334.895 417.053C334.365 416.874 333.789 416.877 333.261 417.062Z" fill="#263238"/>
<path d="M258.986 308.717C258.986 308.717 321.742 314.321 323.367 332.376C326.636 369.11 331.652 404.527 331.652 404.527L318.884 409.197C318.884 409.197 303.258 368.848 303.464 340.081C285.363 334.972 237.766 342.472 229.986 328.509C223.112 316.18 229.145 307.326 229.145 307.326L258.986 308.717Z" fill="#263238"/>
<path d="M317.932 412.102L333.829 406.732L333.138 399.493L315.214 405.266L317.932 412.102Z" fill="#DCEBDF"/>
<path d="M336.76 417.445C335.996 417.69 335.206 417.85 334.407 417.921C334.366 417.926 334.325 417.919 334.288 417.901C334.252 417.883 334.221 417.854 334.201 417.818C334.181 417.785 334.17 417.746 334.17 417.706C334.17 417.667 334.181 417.628 334.201 417.594C334.407 417.314 336.237 414.848 337.405 414.886C337.538 414.894 337.668 414.934 337.782 415.004C337.896 415.075 337.991 415.172 338.059 415.287C338.18 415.452 338.256 415.646 338.277 415.85C338.298 416.053 338.265 416.259 338.18 416.445C337.846 416.942 337.341 417.298 336.76 417.445ZM334.892 417.445C336.508 417.221 337.61 416.791 337.862 416.259C337.915 416.137 337.933 416.002 337.915 415.871C337.897 415.739 337.843 415.615 337.76 415.511C337.731 415.451 337.686 415.4 337.63 415.364C337.574 415.328 337.509 415.308 337.442 415.306C336.77 415.278 335.612 416.483 334.846 417.445H334.892Z" fill="#407BFF"/>
<path d="M334.454 417.912C334.42 417.921 334.385 417.921 334.351 417.912C334.317 417.906 334.284 417.892 334.257 417.871C334.229 417.849 334.207 417.822 334.192 417.79C334.192 417.687 333.118 415.324 333.679 414.204C333.751 414.06 333.855 413.935 333.983 413.838C334.111 413.741 334.259 413.674 334.416 413.643C334.588 413.586 334.775 413.589 334.944 413.651C335.114 413.714 335.258 413.833 335.35 413.989C335.864 414.848 335.22 417.043 334.557 417.837C334.531 417.872 334.495 417.898 334.454 417.912ZM334.454 414.082C334.374 414.109 334.301 414.152 334.238 414.209C334.176 414.265 334.125 414.333 334.09 414.409C333.753 415.072 334.164 416.492 334.473 417.286C334.986 416.408 335.36 414.773 335.024 414.213C334.958 414.11 334.846 413.989 334.547 414.054L334.454 414.082Z" fill="#407BFF"/>
<path d="M281.245 429.689L290.118 429.269L291.565 408.319L282.692 408.739L281.245 429.689Z" fill="#B55B52"/>
<path d="M290.323 427.757L280.273 427.439C280.19 427.433 280.106 427.443 280.026 427.469C279.947 427.495 279.873 427.537 279.81 427.591C279.746 427.646 279.694 427.713 279.657 427.788C279.619 427.862 279.597 427.944 279.591 428.027L278.853 435.957C278.846 436.168 278.88 436.378 278.954 436.575C279.028 436.772 279.14 436.953 279.285 437.106C279.429 437.26 279.602 437.384 279.794 437.47C279.986 437.557 280.193 437.604 280.404 437.61C283.906 437.657 285.578 437.508 289.996 437.61C292.714 437.694 298.066 438.096 301.792 437.61C305.519 437.125 304.949 433.473 303.324 433.333C299.485 433.024 294.339 430.372 291.883 428.308C291.441 427.95 290.891 427.756 290.323 427.757Z" fill="#263238"/>
<path d="M293.481 429.409C292.678 429.363 291.883 429.231 291.108 429.017C291.069 429.008 291.033 428.987 291.005 428.958C290.977 428.929 290.958 428.892 290.951 428.852C290.944 428.812 290.949 428.771 290.966 428.734C290.982 428.696 291.009 428.665 291.043 428.643C291.333 428.447 293.92 426.775 295.003 427.261C295.126 427.314 295.233 427.398 295.315 427.504C295.396 427.611 295.45 427.736 295.47 427.868C295.524 428.065 295.525 428.272 295.473 428.469C295.42 428.666 295.316 428.845 295.171 428.989C294.682 429.34 294.077 429.49 293.481 429.409ZM291.687 428.727C293.275 429.101 294.489 429.092 294.891 428.727C294.983 428.629 295.047 428.508 295.077 428.377C295.106 428.245 295.1 428.108 295.059 427.98C295.05 427.915 295.025 427.854 294.986 427.801C294.947 427.749 294.895 427.708 294.835 427.681C294.219 427.401 292.706 428.101 291.613 428.727H291.687Z" fill="#407BFF"/>
<path d="M291.117 429.026C291.084 429.034 291.048 429.034 291.015 429.026C290.985 429.007 290.96 428.981 290.942 428.95C290.924 428.919 290.914 428.884 290.912 428.849C290.912 428.746 290.791 426.168 291.715 425.327C291.836 425.209 291.985 425.123 292.149 425.077C292.312 425.031 292.484 425.028 292.649 425.066C292.828 425.076 292.998 425.146 293.132 425.264C293.266 425.383 293.356 425.544 293.387 425.72C293.555 426.7 292.163 428.522 291.258 429.026C291.213 429.044 291.162 429.044 291.117 429.026ZM292.453 425.468C292.369 425.462 292.285 425.474 292.206 425.503C292.127 425.532 292.056 425.577 291.995 425.636C291.444 426.131 291.323 427.606 291.323 428.438C292.117 427.803 293.051 426.411 292.939 425.766C292.939 425.645 292.845 425.505 292.546 425.458L292.453 425.468Z" fill="#407BFF"/>
<path opacity="0.2" d="M282.695 408.739L291.577 408.319L290.736 420.302L281.891 420.293L282.695 408.739Z" fill="black"/>
<path d="M238.142 307.718C238.142 307.718 305.764 318.057 304.69 333.627C302.756 361.647 293.36 416.408 293.36 416.408L280.041 416.594C280.041 416.594 276.894 360.424 281.909 339.95C265.275 339.95 218.351 339.371 211.953 330.825C204.873 321.382 212.149 306.541 212.149 306.541L238.142 307.718Z" fill="#263238"/>
<path d="M278.471 417.641L294.592 417.389L295.386 408.87L277.696 409.562L278.471 417.641Z" fill="#DCEBDF"/>
<path d="M250.049 236.332C244.604 235.268 220.049 235.576 220.049 235.576C217.595 235.509 215.204 236.365 213.351 237.975C211.497 239.585 210.314 241.832 210.037 244.271C209.178 251.846 213.988 268.77 214.156 277.4C214.361 288.001 212.335 292.298 212.129 306.569L258.988 308.717C258.988 280.016 257.736 256.255 256.606 244.86C256.204 240.853 255.495 237.388 250.049 236.332Z" fill="#407BFF"/>
<path opacity="0.3" d="M250.049 236.332C244.604 235.268 220.049 235.576 220.049 235.576C217.595 235.509 215.204 236.365 213.351 237.975C211.497 239.585 210.314 241.832 210.037 244.271C209.178 251.846 213.988 268.77 214.156 277.4C214.361 288.001 212.335 292.298 212.129 306.569L258.988 308.717C258.988 280.016 257.736 256.255 256.606 244.86C256.204 240.853 255.495 237.388 250.049 236.332Z" fill="white"/>
<path d="M256.467 245.373C257.933 250.416 259.409 255.6 260.931 260.662C262.454 265.725 264.013 270.815 265.769 275.606C266.199 276.83 266.703 277.969 267.114 279.146L267.833 280.799L267.927 281.005V281.108V281.164V281.098C267.765 280.81 267.564 280.546 267.329 280.314C267.011 280.006 266.89 279.978 266.862 279.978C267.07 280.165 267.311 280.314 267.572 280.416C268.029 280.637 268.5 280.827 268.982 280.986C270.038 281.35 271.224 281.677 272.429 282.004C277.313 283.247 282.647 284.199 287.84 285.311L287.672 291.783C284.884 292.159 282.078 292.387 279.266 292.465C276.419 292.575 273.569 292.522 270.729 292.306C269.218 292.198 267.715 292.005 266.227 291.727C265.442 291.578 264.63 291.391 263.752 291.139C262.71 290.847 261.707 290.433 260.763 289.906C260.01 289.474 259.319 288.943 258.708 288.327C258.241 287.846 257.84 287.306 257.513 286.721L257.195 286.133L256.14 284.134C255.523 282.826 254.851 281.509 254.272 280.211C253.123 277.586 252.114 274.99 251.105 272.384C250.097 269.778 249.237 267.172 248.369 264.557C246.641 259.299 245.081 254.096 243.699 248.679L256.467 245.373Z" fill="#B55B52"/>
<path d="M243.158 240.171C249.565 233.633 257.756 237.201 261.277 249.007C264.799 260.813 264.163 261.672 264.163 261.672L246.95 268.35C242.887 257.105 236.601 246.831 243.158 240.171Z" fill="#3B5CAA"/>
<path d="M292.416 282.808L291.043 282.686C287.139 282.686 286.476 283.751 284.075 285.983L283.141 290.896C289.446 294.119 292.827 290.579 292.827 290.579H298.674L296.61 285.909C296.253 285.063 295.675 284.33 294.937 283.784C294.2 283.238 293.329 282.901 292.416 282.808Z" fill="#B55B52"/>
<path d="M214.184 343.369H274.035C275.35 343.369 276.417 342.302 276.417 340.987V337.139C276.417 335.823 275.35 334.757 274.035 334.757H214.184C212.869 334.757 211.802 335.823 211.802 337.139V340.987C211.802 342.302 212.869 343.369 214.184 343.369Z" fill="#407BFF"/>
<path d="M214.454 439.244H211.802L214.856 343.359H218.527L214.454 439.244Z" fill="#407BFF"/>
<path opacity="0.4" d="M214.454 439.244H211.802L214.856 343.359H218.527L214.454 439.244Z" fill="white"/>
<path d="M238.85 439.244H241.503L238.458 343.359H234.787L238.85 439.244Z" fill="#407BFF"/>
<path opacity="0.4" d="M238.85 439.244H241.503L238.458 343.359H234.787L238.85 439.244Z" fill="white"/>
<path d="M249.368 439.244H246.715L249.769 343.359H253.44L249.368 439.244Z" fill="#407BFF"/>
<path opacity="0.4" d="M249.368 439.244H246.715L249.769 343.359H253.44L249.368 439.244Z" fill="white"/>
<path d="M273.763 439.244H276.416L273.371 343.359H269.7L273.763 439.244Z" fill="#407BFF"/>
<path opacity="0.4" d="M273.763 439.244H276.416L273.371 343.359H269.7L273.763 439.244Z" fill="white"/>
<g opacity="0.3">
<path opacity="0.3" d="M214.858 343.359H218.528L218.351 347.432H214.727L214.858 343.359Z" fill="#407BFF"/>
<path opacity="0.3" d="M238.582 347.431H234.958L234.79 343.359H238.451L238.582 347.431Z" fill="#407BFF"/>
<path opacity="0.3" d="M253.433 343.359L253.265 347.431H249.641L249.771 343.359H253.433Z" fill="#407BFF"/>
<path opacity="0.3" d="M273.502 347.431H269.869L269.701 343.359H273.371L273.502 347.431Z" fill="#407BFF"/>
</g>
<path d="M451.325 226.162H301.727C300.564 226.174 299.412 225.945 298.343 225.489C297.273 225.033 296.31 224.36 295.514 223.513C294.718 222.666 294.106 221.663 293.717 220.568C293.329 219.472 293.171 218.308 293.255 217.149L298.962 122.469C299.141 120.043 300.223 117.773 301.993 116.104C303.763 114.436 306.094 113.491 308.526 113.456H458.088C459.25 113.444 460.402 113.673 461.472 114.129C462.541 114.585 463.504 115.257 464.3 116.104C465.096 116.951 465.708 117.954 466.097 119.05C466.486 120.145 466.643 121.31 466.559 122.469L460.843 217.186C460.657 219.598 459.579 221.854 457.819 223.514C456.06 225.174 453.744 226.118 451.325 226.162Z" fill="#6F97F6"/>
<path d="M321.743 206.146L335.538 253.341L376.466 206.146H321.743Z" fill="#6F97F6"/>
<path opacity="0.1" d="M444.031 188.064H360.195C359.543 188.071 358.897 187.942 358.297 187.687C357.697 187.431 357.157 187.054 356.71 186.579C356.263 186.105 355.92 185.542 355.702 184.928C355.483 184.314 355.394 183.661 355.441 183.011L358.644 129.941C358.745 128.581 359.351 127.308 360.343 126.373C361.335 125.437 362.642 124.908 364.006 124.888H447.841C448.495 124.874 449.145 124.998 449.748 125.251C450.351 125.504 450.894 125.881 451.343 126.357C451.791 126.833 452.134 127.398 452.35 128.016C452.565 128.633 452.649 129.289 452.595 129.941L449.392 183.011C449.292 184.371 448.686 185.644 447.693 186.579C446.701 187.514 445.394 188.044 444.031 188.064Z" fill="white"/>
<path opacity="0.1" d="M399.18 210.955H315.335C314.683 210.961 314.038 210.832 313.44 210.576C312.841 210.32 312.302 209.942 311.856 209.468C311.41 208.993 311.068 208.431 310.85 207.818C310.632 207.204 310.543 206.552 310.59 205.903L313.793 152.833C313.894 151.474 314.498 150.202 315.489 149.267C316.479 148.332 317.783 147.802 319.145 147.78H402.99C403.644 147.767 404.292 147.892 404.894 148.145C405.496 148.399 406.038 148.776 406.485 149.252C406.933 149.728 407.275 150.293 407.49 150.91C407.705 151.527 407.789 152.182 407.735 152.833L404.532 205.903C404.431 207.261 403.827 208.533 402.836 209.468C401.846 210.403 400.542 210.933 399.18 210.955Z" fill="white"/>
<g opacity="0.5">
<path opacity="0.5" d="M314.226 121.694C314.209 122.411 313.924 123.096 313.428 123.614C312.932 124.133 312.261 124.447 311.545 124.496C311.205 124.479 310.872 124.391 310.568 124.237C310.264 124.083 309.996 123.867 309.781 123.603C309.566 123.339 309.409 123.032 309.32 122.703C309.232 122.374 309.213 122.03 309.266 121.694C309.287 120.978 309.573 120.295 310.068 119.778C310.563 119.26 311.232 118.945 311.947 118.892C312.287 118.909 312.62 118.997 312.924 119.151C313.227 119.305 313.496 119.521 313.71 119.785C313.925 120.049 314.082 120.356 314.171 120.685C314.26 121.014 314.278 121.357 314.226 121.694Z" fill="white"/>
<path opacity="0.5" d="M323.368 121.694C323.349 122.41 323.064 123.094 322.569 123.612C322.073 124.13 321.403 124.445 320.688 124.496C320.347 124.48 320.013 124.393 319.708 124.239C319.403 124.086 319.134 123.87 318.918 123.606C318.702 123.341 318.544 123.034 318.455 122.705C318.365 122.375 318.347 122.031 318.399 121.694C318.421 120.978 318.706 120.295 319.201 119.778C319.696 119.26 320.366 118.944 321.08 118.892C321.42 118.909 321.754 118.997 322.058 119.151C322.362 119.304 322.631 119.52 322.846 119.784C323.062 120.048 323.22 120.355 323.31 120.684C323.4 121.012 323.42 121.357 323.368 121.694Z" fill="white"/>
<path opacity="0.5" d="M332.577 121.694C332.561 122.411 332.276 123.096 331.78 123.614C331.284 124.133 330.613 124.447 329.897 124.496C329.557 124.479 329.224 124.391 328.92 124.237C328.616 124.083 328.348 123.867 328.133 123.602C327.918 123.338 327.761 123.032 327.672 122.703C327.584 122.374 327.565 122.03 327.618 121.694C327.639 120.978 327.925 120.295 328.42 119.778C328.915 119.26 329.584 118.944 330.299 118.892C330.639 118.908 330.972 118.997 331.275 119.151C331.579 119.304 331.848 119.521 332.062 119.785C332.277 120.049 332.434 120.356 332.523 120.684C332.612 121.013 332.63 121.357 332.577 121.694Z" fill="white"/>
</g>
<path opacity="0.3" d="M450.167 225.284H300.605C299.412 225.293 298.229 225.055 297.131 224.586C296.033 224.116 295.045 223.424 294.227 222.554C293.41 221.684 292.781 220.654 292.381 219.529C291.98 218.405 291.817 217.209 291.901 216.018L297.617 121.339C297.796 118.853 298.901 116.526 300.714 114.816C302.526 113.106 304.913 112.137 307.405 112.101H456.929C458.123 112.092 459.306 112.33 460.403 112.799C461.501 113.269 462.49 113.961 463.307 114.831C464.125 115.701 464.753 116.731 465.154 117.856C465.554 118.98 465.718 120.176 465.634 121.367L459.927 216.046C459.746 218.526 458.644 220.848 456.838 222.558C455.032 224.267 452.653 225.239 450.167 225.284ZM307.405 112.578C305.029 112.607 302.75 113.527 301.02 115.157C299.29 116.786 298.236 119.006 298.065 121.376L292.349 216.056C292.266 217.184 292.418 218.316 292.796 219.383C293.174 220.449 293.768 221.425 294.543 222.249C295.317 223.073 296.254 223.728 297.294 224.172C298.335 224.615 299.456 224.838 300.587 224.826H450.167C452.542 224.795 454.82 223.874 456.549 222.245C458.279 220.616 459.334 218.397 459.507 216.028L465.214 121.348C465.294 120.217 465.138 119.081 464.757 118.013C464.375 116.945 463.776 115.968 462.998 115.143C462.219 114.319 461.277 113.665 460.233 113.224C459.188 112.782 458.063 112.562 456.929 112.578H307.405Z" fill="#263238"/>
<path d="M369.182 169.934C368.547 171.279 367.968 172.428 367.314 173.67C366.661 174.912 366.007 176.033 365.334 177.201C363.961 179.526 362.532 181.871 361.001 184.056C360.228 185.177 359.438 186.288 358.628 187.39C357.778 188.474 356.975 189.576 356.069 190.631C354.302 192.819 352.395 194.89 350.362 196.833C349.849 197.338 349.288 197.767 348.746 198.3C348.209 198.804 347.641 199.275 347.047 199.71L345.253 201.064L344.702 201.447C344.458 201.602 344.206 201.742 343.946 201.867C343.433 202.114 342.894 202.302 342.339 202.428C341.243 202.684 340.103 202.693 339.003 202.454C337.903 202.215 336.87 201.734 335.979 201.046C335.537 200.697 335.133 200.302 334.774 199.869L334.522 199.532L334.4 199.364L334.354 199.29L334.185 198.991L333.513 197.777C333.307 197.384 333.167 197.011 332.999 196.628C332.411 195.218 331.93 193.767 331.561 192.285C330.911 189.584 330.455 186.84 330.197 184.075C329.924 181.381 329.806 178.675 329.842 175.968C329.862 175.2 330.156 174.464 330.67 173.893C331.184 173.323 331.886 172.955 332.648 172.855C333.409 172.756 334.182 172.932 334.825 173.352C335.468 173.772 335.94 174.408 336.156 175.146V175.258C337.394 180.018 338.925 184.697 340.742 189.268C341.158 190.235 341.642 191.171 342.19 192.07C342.311 192.257 342.433 192.481 342.554 192.64L342.909 193.069L342.993 193.181L342.946 193.107L342.844 192.966C342.697 192.775 342.528 192.603 342.339 192.453C341.966 192.152 341.533 191.935 341.069 191.818C340.604 191.719 340.124 191.719 339.659 191.818C339.417 191.869 339.182 191.947 338.958 192.051C338.837 192.051 338.734 192.173 338.622 192.229C338.51 192.285 338.342 192.425 338.463 192.322L339.631 191.183C340.023 190.828 340.406 190.398 340.789 189.987C341.172 189.576 341.564 189.174 341.938 188.735C345.017 185.042 347.82 181.128 350.325 177.023C351.604 174.94 352.865 172.82 354.061 170.672L355.864 167.44L357.573 164.283L357.666 164.115C358.477 162.664 359.817 161.582 361.406 161.096C362.995 160.609 364.711 160.756 366.195 161.504C367.679 162.253 368.816 163.546 369.369 165.113C369.923 166.681 369.849 168.401 369.164 169.915L369.182 169.934Z" fill="#263238"/>
<path d="M330.719 175.557L326.171 172.951L331.065 167.954C332.499 169.017 333.829 170.215 335.034 171.531C335.318 171.832 335.528 172.196 335.646 172.593C335.764 172.989 335.788 173.408 335.716 173.816C335.643 174.224 335.476 174.608 335.228 174.94C334.98 175.271 334.658 175.54 334.287 175.725C333.723 175.987 333.104 176.108 332.483 176.079C331.861 176.049 331.256 175.87 330.719 175.557Z" fill="#FFC3BD"/>
<path d="M325.135 167.6L327.61 165.835C327.931 165.601 328.332 165.503 328.726 165.562C329.119 165.622 329.473 165.834 329.711 166.152L331.065 167.955L326.171 172.952L324.63 169.44C324.49 169.122 324.464 168.765 324.556 168.43C324.648 168.095 324.852 167.802 325.135 167.6Z" fill="#FFC3BD"/>
<path d="M359.384 165.75C359.755 164.53 360.455 163.435 361.407 162.586C362.36 161.738 363.528 161.168 364.783 160.94C366.596 160.539 368.434 160.258 370.284 160.099C375.855 159.882 381.433 159.982 386.993 160.398C389.907 160.594 392.887 161.005 395.259 161.398H395.343C396.599 161.606 397.722 162.304 398.464 163.339C399.207 164.374 399.508 165.661 399.303 166.918C398.136 173.661 394.708 185.392 394.334 196.46C393.839 210.993 394.063 219.362 393.811 222.864L356.405 222.145C353.799 186.625 357.04 173.792 359.384 165.75Z" fill="white"/>
<path d="M396.341 160.846H396.219C393.716 160.435 390.615 159.996 387.505 159.791L385.842 159.697C384.208 166.46 374.466 177.836 371.515 195.077C370.375 180.666 369.497 165.6 371.169 159.725C368.526 159.806 365.888 160.027 363.268 160.389C361.882 160.702 360.604 161.377 359.564 162.345C358.523 163.313 357.758 164.539 357.346 165.899C355.048 172.661 350.659 187.811 353.358 225.059H394.93C395.201 221.323 394.23 213.477 395.734 201.401C397.181 189.707 399.264 173.791 400.488 166.684C400.707 165.36 400.394 164.004 399.617 162.91C398.84 161.817 397.662 161.075 396.341 160.846Z" fill="#263238"/>
<path opacity="0.2" d="M370.63 223.116C370.567 223.119 370.506 223.097 370.459 223.055C370.412 223.013 370.383 222.955 370.378 222.892C369.5 212.384 371.144 197.3 371.162 197.142C371.166 197.11 371.176 197.079 371.191 197.05C371.207 197.022 371.228 196.997 371.253 196.978C371.278 196.958 371.307 196.943 371.338 196.934C371.369 196.925 371.401 196.923 371.433 196.927C371.498 196.934 371.558 196.966 371.6 197.017C371.642 197.067 371.663 197.132 371.657 197.198C371.657 197.347 369.995 212.394 370.873 222.845C370.877 222.878 370.874 222.911 370.865 222.942C370.855 222.974 370.84 223.003 370.819 223.029C370.798 223.054 370.772 223.075 370.743 223.09C370.713 223.105 370.681 223.114 370.649 223.116H370.63Z" fill="white"/>
<path opacity="0.3" d="M394.874 175.632C393.333 182.618 394.155 192.295 395.808 201.121C397.032 191.211 398.704 178.35 399.927 170.392C398.218 169.253 396.098 170.056 394.874 175.632Z" fill="black"/>
<path d="M371.078 160.053C375.926 158.988 376.766 155.999 376.421 152.693C376.335 151.867 376.201 151.047 376.019 150.237L382.071 145.286L386.527 141.662C385.312 147.024 383.977 156.803 387.638 160.455C387.638 160.455 384.649 165.358 376.337 164.76C369.313 164.256 371.078 160.053 371.078 160.053Z" fill="#FFC3BD"/>
<path d="M378.447 163.527L377.102 164.797L381.398 166.413L380.838 164.779L378.447 163.527Z" fill="#E0E0E0"/>
<path d="M381.735 168.692C381.735 168.692 380.044 164.423 378.447 163.517C381.588 162.768 384.466 161.176 386.769 158.913L389.319 159.931C389.319 159.931 390.122 164.881 381.735 168.692Z" fill="#F5F5F5"/>
<path d="M376.092 163.19L377.101 164.797L372.581 165.189L373.487 163.76L376.092 163.19Z" fill="#E0E0E0"/>
<path d="M370.312 167.487C371.969 165.722 373.927 164.267 376.094 163.19C373.637 162.462 373.488 159.081 373.488 159.081L371.106 159.538C371.106 159.538 366.735 163.788 370.312 167.487Z" fill="#F5F5F5"/>
<path opacity="0.2" d="M376.018 150.227C376.199 151.04 376.333 151.864 376.419 152.693C378.679 152.282 381.706 149.891 382.023 147.602C382.13 146.835 382.152 146.058 382.089 145.286L376.018 150.227Z" fill="black"/>
<path d="M368.667 125.783C366.501 128.445 366.706 138.075 371.292 138.187C375.878 138.299 372.609 120.927 368.667 125.783Z" fill="#263238"/>
<path d="M388.421 132.789C387.963 140.084 388.057 144.371 384.377 148.144C378.847 153.813 369.881 150.554 368.153 143.297C366.612 136.759 367.621 125.933 374.747 122.973C376.303 122.307 378.005 122.054 379.688 122.238C381.37 122.422 382.977 123.038 384.352 124.025C385.727 125.012 386.824 126.338 387.537 127.873C388.25 129.408 388.554 131.102 388.421 132.789Z" fill="#FFC3BD"/>
<path d="M384.833 126.719C380.247 131.267 386.206 134.602 383.899 137.049C388.224 139.309 386.636 140.971 386.636 140.971C386.188 142.215 386.188 143.576 386.636 144.819C391.511 143.568 400.562 127.372 390.68 124.888C384.768 127.522 384.833 126.719 384.833 126.719Z" fill="#263238"/>
<path d="M386.712 129.988C382.369 130.66 376.905 128.587 373.515 126.831C370.124 125.075 369.629 128.39 370.881 129.399C368.705 129.474 365.949 127.755 366.631 123.917C367.257 120.414 371.843 117.098 378.371 120.059C382.995 122.151 388.692 119.396 390.915 121.815C393.138 124.234 389.608 129.53 386.712 129.988Z" fill="#263238"/>
<path d="M389.683 125.233C392.597 124.85 392.718 123.01 391.906 119.787C395.053 124.261 393.774 125.634 391.906 126.718C389.823 126.017 389.683 125.233 389.683 125.233Z" fill="#263238"/>
<path d="M390.384 138.384C389.738 139.811 388.611 140.965 387.199 141.643C385.397 142.456 384.481 140.793 384.967 138.841C385.406 137.076 386.835 134.536 388.703 134.554C390.571 134.573 391.197 136.581 390.384 138.384Z" fill="#FFC3BD"/>
<path d="M377.035 134.993C377.035 135.581 376.717 136.067 376.334 136.076C375.952 136.086 375.671 135.6 375.671 134.993C375.671 134.386 375.989 133.919 376.372 133.919C376.755 133.919 377.035 134.395 377.035 134.993Z" fill="#263238"/>
<path d="M370.348 135.05C370.348 135.648 370.03 136.124 369.638 136.133C369.246 136.143 368.937 135.657 368.947 135.059C368.956 134.462 369.255 133.985 369.647 133.985C370.04 133.985 370.348 134.462 370.348 135.05Z" fill="#263238"/>
<path d="M372.87 135.255C372.172 137.074 371.229 138.79 370.068 140.355C370.47 140.637 370.929 140.829 371.413 140.918C371.897 141.007 372.394 140.99 372.87 140.868V135.255Z" fill="#ED847E"/>
<path d="M375.225 142.465C375.903 142.389 376.558 142.173 377.148 141.831C377.738 141.488 378.25 141.027 378.653 140.476C378.677 140.438 378.686 140.391 378.676 140.346C378.667 140.302 378.64 140.263 378.601 140.238C378.563 140.213 378.516 140.205 378.472 140.214C378.427 140.224 378.388 140.251 378.363 140.289C377.914 140.876 377.334 141.351 376.669 141.675C376.004 141.999 375.273 142.164 374.534 142.157C374.511 142.157 374.488 142.162 374.467 142.171C374.446 142.18 374.427 142.193 374.411 142.21C374.396 142.226 374.383 142.246 374.376 142.267C374.368 142.289 374.364 142.312 374.366 142.335C374.366 142.358 374.37 142.38 374.379 142.401C374.388 142.422 374.402 142.441 374.418 142.457C374.435 142.473 374.454 142.485 374.476 142.493C374.497 142.501 374.52 142.504 374.543 142.503C374.786 142.465 375.01 142.465 375.225 142.465Z" fill="#263238"/>
<path d="M380.278 132.63C380.337 132.627 380.393 132.604 380.437 132.565C380.474 132.538 380.506 132.504 380.529 132.464C380.553 132.425 380.568 132.381 380.575 132.336C380.581 132.29 380.577 132.244 380.565 132.2C380.553 132.156 380.531 132.115 380.502 132.079C380.182 131.637 379.76 131.277 379.273 131.03C378.786 130.783 378.247 130.656 377.7 130.659C377.655 130.663 377.611 130.675 377.571 130.696C377.531 130.717 377.495 130.746 377.467 130.781C377.438 130.815 377.416 130.856 377.404 130.899C377.391 130.942 377.387 130.988 377.392 131.033C377.401 131.126 377.447 131.212 377.518 131.273C377.589 131.334 377.681 131.365 377.775 131.36C378.209 131.356 378.637 131.457 379.023 131.656C379.408 131.854 379.74 132.144 379.989 132.499C380.023 132.543 380.067 132.577 380.117 132.6C380.168 132.623 380.223 132.633 380.278 132.63Z" fill="#263238"/>
<path d="M367.64 132.92C367.695 132.913 367.748 132.892 367.794 132.859C367.839 132.827 367.876 132.783 367.901 132.733C368.08 132.329 368.351 131.973 368.694 131.694C369.036 131.415 369.44 131.22 369.872 131.127C369.918 131.123 369.962 131.109 370.002 131.086C370.042 131.063 370.077 131.033 370.105 130.996C370.132 130.959 370.151 130.916 370.161 130.871C370.171 130.826 370.171 130.78 370.162 130.735C370.146 130.645 370.096 130.564 370.024 130.509C369.951 130.453 369.86 130.427 369.769 130.436C369.225 130.543 368.714 130.779 368.278 131.123C367.843 131.468 367.496 131.911 367.266 132.416C367.227 132.499 367.222 132.594 367.251 132.681C367.281 132.769 367.343 132.841 367.425 132.883C367.492 132.914 367.566 132.927 367.64 132.92Z" fill="#263238"/>
<path d="M401.601 165.068C402.74 167.468 403.693 169.738 404.627 172.073C405.561 174.408 406.392 176.79 407.223 179.171C408.854 184.025 410.171 188.98 411.165 194.003C411.38 195.301 411.622 196.572 411.781 197.907L411.903 198.897L411.968 199.392V199.644V199.99C412.061 200.956 412.061 201.929 411.968 202.895C411.752 205.009 411.024 207.038 409.848 208.807C408.745 210.427 407.297 211.783 405.608 212.777C404.2 213.603 402.685 214.232 401.106 214.645C399.7 215.03 398.262 215.286 396.809 215.41C394.07 215.669 391.309 215.56 388.599 215.084C387.864 214.96 387.195 214.585 386.706 214.023C386.217 213.46 385.939 212.745 385.919 212C385.899 211.256 386.139 210.527 386.597 209.939C387.056 209.351 387.704 208.941 388.431 208.779L388.767 208.704C389.701 208.489 390.925 208.228 391.971 207.948C393.017 207.668 394.082 207.341 395.072 207.014C396.801 206.46 398.403 205.572 399.789 204.399C400.155 204.059 400.434 203.636 400.601 203.166C400.667 202.836 400.667 202.496 400.601 202.166C400.57 201.915 400.523 201.665 400.461 201.419L400.125 199.897C399.91 198.832 399.602 197.73 399.322 196.646C398.743 194.451 398.089 192.257 397.342 190.052C396.594 187.848 395.829 185.653 395.016 183.458C394.203 181.263 393.344 179.068 392.475 176.92C391.607 174.772 390.692 172.512 389.823 170.466V170.373C389.124 168.815 389.073 167.043 389.681 165.447C390.289 163.852 391.506 162.563 393.064 161.864C394.622 161.166 396.394 161.115 397.989 161.722C399.585 162.33 400.874 163.547 401.573 165.105L401.601 165.068Z" fill="#263238"/>
<path d="M385.646 211.47L381.527 213.45L388.645 215.981C388.645 215.981 393.389 214.468 391.092 211.834L389.812 211.433C387.757 210.76 386.749 210.835 385.646 211.47Z" fill="#FFC3BD"/>
<path d="M382.08 218.475L385.209 219.072C385.656 219.154 386.118 219.095 386.529 218.903C386.941 218.71 387.283 218.394 387.506 217.998L388.646 215.953L381.529 213.45L380.595 215.402C380.45 215.697 380.374 216.021 380.373 216.35C380.372 216.679 380.446 217.004 380.589 217.3C380.732 217.596 380.941 217.856 381.199 218.059C381.457 218.263 381.758 218.405 382.08 218.475Z" fill="#FFC3BD"/>
</svg>
