<svg width="1280" height="351" viewBox="0 0 1280 351" fill="none" xmlns="http://www.w3.org/2000/svg">
<path opacity="0.51" d="M532.31 110.097C628.073 149.829 701.14 113.041 833.157 141.96C884.009 153.093 1070.83 154.782 1142.2 155.065C1179.17 155.197 1179.36 197.278 1142.2 197.363C1080.08 197.486 963.994 197.429 908.204 200.505C842.056 204.156 817.962 217.705 770.779 221.187C748.945 222.8 692.774 221.659 650.516 222.13C510.882 223.923 543.81 265.806 390.911 269.919C182.019 275.552 296.151 354.553 8.68269 351.034C2.5388 351.034 0.44429 349.665 0.44429 344.825C0.837803 68.0825 0 16.9156 0 2.38545C9.30469 1.1117 157.088 -7.5026 232.376 40.3808C353.413 117.315 392.587 52.1465 532.31 110.097Z" fill="#1C3B87"/>
<path opacity="0.3" d="M434.96 125.637C514.109 156.009 574.499 127.887 683.613 149.994C725.643 158.504 880.05 159.796 939.045 160.012C969.596 160.113 969.754 192.281 939.045 192.346C887.698 192.439 791.751 192.396 745.64 194.747C690.968 197.539 671.055 207.896 632.057 210.557C614.011 211.791 567.585 210.918 532.659 211.279C417.25 212.649 444.465 244.665 318.092 247.81C145.441 252.116 239.772 312.507 2.17633 309.816C-2.90166 309.816 -4.63279 308.77 -4.63279 305.07C-4.30755 93.5195 -5 54.4059 -5 43.2986C2.69043 42.3249 124.835 35.7399 187.061 72.3435C287.1 131.155 319.477 81.3375 434.96 125.637Z" fill="#A1BDF3" fill-opacity="0.5"/>
<path opacity="0.3" d="M332.812 146.702C393.585 164.387 439.954 148.012 523.734 160.884C556.006 165.84 674.563 166.591 719.861 166.717C743.319 166.776 743.44 185.507 719.861 185.544C680.436 185.599 606.765 185.574 571.36 186.943C529.381 188.568 514.092 194.599 484.148 196.148C470.292 196.866 434.645 196.358 407.827 196.568C319.214 197.366 340.11 216.008 243.078 217.839C110.512 220.347 182.942 255.51 0.510167 253.944C-3.38884 253.944 -4.71805 253.335 -4.71805 251.18C-4.46832 128.001 -5 105.227 -5 98.7591C0.904901 98.1922 94.6905 94.3579 142.469 115.671C219.281 149.915 244.142 120.908 332.812 146.702Z" fill="#6F97F6" fill-opacity="0.4"/>
<line x1="-1.74846e-07" y1="177.225" x2="1280" y2="177.225" stroke="#3D6AD6" stroke-width="4"/>
<circle cx="102.5" cy="177.225" r="8" fill="white"/>
<path d="M86.9032 227.465C85.8499 227.465 84.8899 227.311 84.0232 227.005C83.1565 226.698 82.4632 226.231 81.9432 225.605C81.4232 224.965 81.1632 224.178 81.1632 223.245L81.1832 222.825H83.7632C83.7499 222.905 83.7432 223.025 83.7432 223.185C83.7432 223.851 84.0299 224.371 84.6032 224.745C85.1765 225.118 85.9632 225.305 86.9632 225.305C88.0299 225.305 88.8232 225.151 89.3432 224.845C89.8632 224.538 90.1232 224.111 90.1232 223.565C90.1232 223.138 89.9699 222.785 89.6632 222.505C89.3565 222.225 88.9765 222.005 88.5232 221.845C88.0699 221.671 87.4299 221.471 86.6032 221.245C85.5099 220.951 84.6232 220.671 83.9432 220.405C83.2765 220.125 82.7032 219.718 82.2232 219.185C81.7432 218.638 81.5032 217.925 81.5032 217.045C81.5032 215.818 82.0099 214.885 83.0232 214.245C84.0365 213.591 85.3632 213.265 87.0032 213.265C88.5765 213.265 89.8565 213.598 90.8432 214.265C91.8432 214.918 92.3432 215.911 92.3432 217.245V217.485H89.8232V217.265C89.8232 216.691 89.5632 216.245 89.0432 215.925C88.5365 215.591 87.8499 215.425 86.9832 215.425C86.0765 215.425 85.3632 215.558 84.8432 215.825C84.3365 216.091 84.0832 216.465 84.0832 216.945C84.0832 217.305 84.2299 217.611 84.5232 217.865C84.8165 218.105 85.1832 218.305 85.6232 218.465C86.0765 218.611 86.6832 218.785 87.4432 218.985C88.5499 219.278 89.4499 219.565 90.1432 219.845C90.8499 220.125 91.4499 220.538 91.9432 221.085C92.4499 221.631 92.7032 222.338 92.7032 223.205C92.7032 224.671 92.1832 225.751 91.1432 226.445C90.1032 227.125 88.6899 227.465 86.9032 227.465ZM97.683 227.465C96.7897 227.465 96.143 227.218 95.743 226.725C95.3564 226.218 95.163 225.591 95.163 224.845V218.665H93.883V216.705H95.203L95.643 213.765H97.563V216.705H99.363V218.665H97.563V224.605C97.563 225.205 97.8497 225.505 98.423 225.505H99.363V227.145C99.1497 227.225 98.883 227.298 98.563 227.365C98.243 227.431 97.9497 227.465 97.683 227.465ZM103.872 227.465C103.019 227.465 102.245 227.258 101.552 226.845C100.872 226.418 100.532 225.638 100.532 224.505C100.532 223.158 101.105 222.211 102.252 221.665C103.399 221.118 105.025 220.845 107.132 220.845V219.965C107.132 219.458 106.999 219.065 106.732 218.785C106.479 218.505 106.012 218.365 105.332 218.365C104.625 218.365 104.125 218.478 103.832 218.705C103.539 218.931 103.392 219.211 103.392 219.545V219.825H101.072C101.059 219.745 101.052 219.598 101.052 219.385C101.052 218.478 101.439 217.765 102.212 217.245C102.999 216.725 104.039 216.465 105.332 216.465C106.732 216.465 107.779 216.751 108.472 217.325C109.179 217.898 109.532 218.718 109.532 219.785V224.805C109.532 225.045 109.599 225.225 109.732 225.345C109.865 225.451 110.032 225.505 110.232 225.505H110.872V227.145C110.445 227.345 109.945 227.445 109.372 227.445C108.852 227.445 108.419 227.318 108.072 227.065C107.725 226.811 107.492 226.465 107.372 226.025H107.232C106.445 226.985 105.325 227.465 103.872 227.465ZM104.592 225.545C105.379 225.545 105.999 225.318 106.452 224.865C106.905 224.411 107.132 223.798 107.132 223.025V222.545C105.839 222.545 104.825 222.671 104.092 222.925C103.359 223.165 102.992 223.611 102.992 224.265C102.992 225.118 103.525 225.545 104.592 225.545ZM112.425 216.705H114.405L114.625 218.365H114.765C115.245 217.098 116.032 216.465 117.125 216.465C117.499 216.465 117.832 216.525 118.125 216.645V218.905H117.365C115.672 218.905 114.825 219.851 114.825 221.745V227.225H112.425V216.705ZM122.488 227.465C121.594 227.465 120.948 227.218 120.548 226.725C120.161 226.218 119.968 225.591 119.968 224.845V218.665H118.688V216.705H120.008L120.448 213.765H122.368V216.705H124.168V218.665H122.368V224.605C122.368 225.205 122.654 225.505 123.228 225.505H124.168V227.145C123.954 227.225 123.688 227.298 123.368 227.365C123.048 227.431 122.754 227.465 122.488 227.465Z" fill="#EAF1FF"/>
<circle cx="304" cy="177.225" r="8" fill="white"/>
<path d="M284.688 213.505H291.288C292.754 213.505 293.868 213.891 294.628 214.665C295.388 215.438 295.768 216.511 295.768 217.885C295.768 219.258 295.368 220.345 294.568 221.145C293.781 221.931 292.641 222.325 291.148 222.325H287.248V227.225H284.688V213.505ZM291.068 220.145C291.734 220.145 292.254 219.945 292.628 219.545C293.001 219.145 293.188 218.591 293.188 217.885C293.188 217.191 293.008 216.651 292.648 216.265C292.288 215.878 291.761 215.685 291.068 215.685H287.248V220.145H291.068ZM298.007 212.765H300.407V227.225H298.007V212.765ZM305.743 227.465C304.89 227.465 304.117 227.258 303.423 226.845C302.743 226.418 302.403 225.638 302.403 224.505C302.403 223.158 302.977 222.211 304.123 221.665C305.27 221.118 306.897 220.845 309.003 220.845V219.965C309.003 219.458 308.87 219.065 308.603 218.785C308.35 218.505 307.883 218.365 307.203 218.365C306.497 218.365 305.997 218.478 305.703 218.705C305.41 218.931 305.263 219.211 305.263 219.545V219.825H302.943C302.93 219.745 302.923 219.598 302.923 219.385C302.923 218.478 303.31 217.765 304.083 217.245C304.87 216.725 305.91 216.465 307.203 216.465C308.603 216.465 309.65 216.751 310.343 217.325C311.05 217.898 311.403 218.718 311.403 219.785V224.805C311.403 225.045 311.47 225.225 311.603 225.345C311.737 225.451 311.903 225.505 312.103 225.505H312.743V227.145C312.317 227.345 311.817 227.445 311.243 227.445C310.723 227.445 310.29 227.318 309.943 227.065C309.597 226.811 309.363 226.465 309.243 226.025H309.103C308.317 226.985 307.197 227.465 305.743 227.465ZM306.463 225.545C307.25 225.545 307.87 225.318 308.323 224.865C308.777 224.411 309.003 223.798 309.003 223.025V222.545C307.71 222.545 306.697 222.671 305.963 222.925C305.23 223.165 304.863 223.611 304.863 224.265C304.863 225.118 305.397 225.545 306.463 225.545ZM314.296 216.705H316.276L316.476 218.105H316.616C317.003 217.585 317.476 217.185 318.036 216.905C318.61 216.611 319.263 216.465 319.996 216.465C321.063 216.465 321.896 216.758 322.496 217.345C323.096 217.918 323.396 218.845 323.396 220.125V227.225H320.996V220.545C320.996 219.825 320.83 219.311 320.496 219.005C320.176 218.698 319.696 218.545 319.056 218.545C318.39 218.545 317.83 218.785 317.376 219.265C316.923 219.745 316.696 220.358 316.696 221.105V227.225H314.296V216.705Z" fill="#EAF1FF"/>
<circle cx="496" cy="177.225" r="8" fill="white"/>
<path d="M478.911 227.465C476.751 227.465 475.104 226.885 473.971 225.725C472.837 224.565 472.271 222.778 472.271 220.365C472.271 217.991 472.844 216.218 473.991 215.045C475.137 213.858 476.777 213.265 478.911 213.265C480.084 213.265 481.124 213.465 482.031 213.865C482.937 214.251 483.651 214.845 484.171 215.645C484.704 216.431 484.971 217.405 484.971 218.565H482.351C482.351 217.565 482.037 216.791 481.411 216.245C480.797 215.698 479.977 215.425 478.951 215.425C477.577 215.425 476.557 215.818 475.891 216.605C475.224 217.391 474.891 218.578 474.891 220.165V220.565C474.891 222.165 475.217 223.358 475.871 224.145C476.537 224.918 477.564 225.305 478.951 225.305C480.031 225.305 480.884 225.038 481.511 224.505C482.137 223.958 482.451 223.191 482.451 222.205H484.971C484.971 223.925 484.411 225.231 483.291 226.125C482.184 227.018 480.724 227.465 478.911 227.465ZM491.744 227.465C490.011 227.465 488.711 227.018 487.844 226.125C486.991 225.231 486.564 223.845 486.564 221.965C486.564 220.085 486.991 218.698 487.844 217.805C488.711 216.911 490.011 216.465 491.744 216.465C493.478 216.465 494.771 216.911 495.624 217.805C496.491 218.698 496.924 220.085 496.924 221.965C496.924 223.845 496.491 225.231 495.624 226.125C494.771 227.018 493.478 227.465 491.744 227.465ZM491.744 225.505C492.691 225.505 493.378 225.231 493.804 224.685C494.231 224.125 494.444 223.265 494.444 222.105V221.825C494.444 220.665 494.231 219.811 493.804 219.265C493.378 218.705 492.691 218.425 491.744 218.425C490.784 218.425 490.091 218.705 489.664 219.265C489.251 219.811 489.044 220.665 489.044 221.825V222.105C489.044 223.265 489.251 224.125 489.664 224.685C490.091 225.231 490.784 225.505 491.744 225.505ZM502.58 227.465C501.247 227.465 500.213 227.011 499.48 226.105C498.747 225.198 498.38 223.811 498.38 221.945C498.38 220.131 498.747 218.765 499.48 217.845C500.213 216.925 501.193 216.465 502.42 216.465C503.887 216.465 504.94 216.951 505.58 217.925H505.7V212.765H508.1V227.225H506.12L505.92 225.825H505.8C505.453 226.358 505 226.765 504.44 227.045C503.88 227.325 503.26 227.465 502.58 227.465ZM503.3 225.405C504.127 225.405 504.733 225.131 505.12 224.585C505.507 224.025 505.7 223.198 505.7 222.105V221.865C505.7 219.638 504.9 218.525 503.3 218.525C502.42 218.525 501.793 218.791 501.42 219.325C501.047 219.845 500.86 220.685 500.86 221.845V222.105C500.86 223.251 501.047 224.091 501.42 224.625C501.793 225.145 502.42 225.405 503.3 225.405ZM515.276 227.465C513.569 227.465 512.303 227.018 511.476 226.125C510.649 225.231 510.236 223.845 510.236 221.965C510.236 220.085 510.649 218.698 511.476 217.805C512.316 216.911 513.583 216.465 515.276 216.465C516.823 216.465 517.976 216.898 518.736 217.765C519.509 218.631 519.896 219.985 519.896 221.825V222.545H512.676C512.716 223.585 512.936 224.351 513.336 224.845C513.749 225.325 514.403 225.565 515.296 225.565C515.963 225.565 516.503 225.398 516.916 225.065C517.329 224.718 517.536 224.211 517.536 223.545H519.896C519.896 224.838 519.469 225.818 518.616 226.485C517.763 227.138 516.649 227.465 515.276 227.465ZM517.396 220.845C517.396 219.191 516.689 218.365 515.276 218.365C514.476 218.365 513.869 218.571 513.456 218.985C513.056 219.385 512.809 220.005 512.716 220.845H517.396Z" fill="#EAF1FF"/>
<circle cx="721" cy="177.225" r="8" fill="white"/>
<path d="M714.646 227.445C714.499 227.458 714.272 227.465 713.966 227.465C711.766 227.465 710.066 226.871 708.866 225.685C707.666 224.498 707.066 222.725 707.066 220.365C707.066 218.005 707.666 216.231 708.866 215.045C710.066 213.858 711.766 213.265 713.966 213.265C716.166 213.265 717.866 213.858 719.066 215.045C720.279 216.231 720.886 218.005 720.886 220.365C720.886 222.031 720.579 223.411 719.966 224.505C719.352 225.585 718.466 226.371 717.306 226.865L720.366 229.825H716.946L714.646 227.445ZM713.966 225.305C715.379 225.305 716.446 224.911 717.166 224.125C717.899 223.325 718.266 222.145 718.266 220.585V220.165C718.266 218.605 717.899 217.425 717.166 216.625C716.432 215.825 715.366 215.425 713.966 215.425C712.579 215.425 711.519 215.825 710.786 216.625C710.052 217.425 709.686 218.605 709.686 220.165V220.585C709.686 222.145 710.046 223.325 710.766 224.125C711.499 224.911 712.566 225.305 713.966 225.305ZM727.172 213.505H730.392L735.732 227.225H732.972L731.852 224.245H725.572L724.472 227.225H721.832L727.172 213.505ZM731.032 222.085L729.632 218.325C729.419 217.791 729.192 217.111 728.952 216.285C728.912 216.165 728.872 216.058 728.832 215.965C728.805 215.858 728.779 215.771 728.752 215.705H728.652L728.452 216.325L727.772 218.325L726.372 222.085H731.032Z" fill="#EAF1FF"/>
<g filter="url(#filter0_d)">
<circle class="pulse" cx="941" cy="177.225" r="8" fill="#FBBC79"/>
<circle class="pulse" cx="941" cy="177.225" r="8" stroke="#FBBC79" stroke-width="3"/>
</g>
<path class="pulse" d="M907.82 213.505H910.38V225.005H917.66V227.225H907.82V213.505ZM922.196 227.465C921.343 227.465 920.57 227.258 919.876 226.845C919.196 226.418 918.856 225.638 918.856 224.505C918.856 223.158 919.43 222.211 920.576 221.665C921.723 221.118 923.35 220.845 925.456 220.845V219.965C925.456 219.458 925.323 219.065 925.056 218.785C924.803 218.505 924.336 218.365 923.656 218.365C922.95 218.365 922.45 218.478 922.156 218.705C921.863 218.931 921.716 219.211 921.716 219.545V219.825H919.396C919.383 219.745 919.376 219.598 919.376 219.385C919.376 218.478 919.763 217.765 920.536 217.245C921.323 216.725 922.363 216.465 923.656 216.465C925.056 216.465 926.103 216.751 926.796 217.325C927.503 217.898 927.856 218.718 927.856 219.785V224.805C927.856 225.045 927.923 225.225 928.056 225.345C928.19 225.451 928.356 225.505 928.556 225.505H929.196V227.145C928.77 227.345 928.27 227.445 927.696 227.445C927.176 227.445 926.743 227.318 926.396 227.065C926.05 226.811 925.816 226.465 925.696 226.025H925.556C924.77 226.985 923.65 227.465 922.196 227.465ZM922.916 225.545C923.703 225.545 924.323 225.318 924.776 224.865C925.23 224.411 925.456 223.798 925.456 223.025V222.545C924.163 222.545 923.15 222.671 922.416 222.925C921.683 223.165 921.316 223.611 921.316 224.265C921.316 225.118 921.85 225.545 922.916 225.545ZM934.09 227.465C931.823 227.465 930.69 226.245 930.69 223.805V216.705H933.09V223.385C933.09 224.105 933.25 224.618 933.57 224.925C933.903 225.231 934.39 225.385 935.03 225.385C935.696 225.385 936.256 225.145 936.71 224.665C937.163 224.185 937.39 223.571 937.39 222.825V216.705H939.79V227.225H937.81L937.61 225.825H937.47C937.083 226.345 936.603 226.751 936.03 227.045C935.47 227.325 934.823 227.465 934.09 227.465ZM942.586 216.705H944.566L944.766 218.105H944.906C945.292 217.585 945.766 217.185 946.326 216.905C946.899 216.611 947.552 216.465 948.286 216.465C949.352 216.465 950.186 216.758 950.786 217.345C951.386 217.918 951.686 218.845 951.686 220.125V227.225H949.286V220.545C949.286 219.825 949.119 219.311 948.786 219.005C948.466 218.698 947.986 218.545 947.346 218.545C946.679 218.545 946.119 218.785 945.666 219.265C945.212 219.745 944.986 220.358 944.986 221.105V227.225H942.586V216.705ZM958.641 227.465C956.988 227.465 955.761 227.018 954.961 226.125C954.161 225.231 953.761 223.845 953.761 221.965C953.761 220.085 954.161 218.698 954.961 217.805C955.775 216.911 957.001 216.465 958.641 216.465C960.068 216.465 961.168 216.818 961.941 217.525C962.715 218.231 963.101 219.271 963.101 220.645H960.661C960.661 219.898 960.495 219.338 960.161 218.965C959.828 218.591 959.308 218.405 958.601 218.405C957.775 218.405 957.168 218.691 956.781 219.265C956.395 219.825 956.201 220.691 956.201 221.865V222.105C956.201 223.278 956.395 224.145 956.781 224.705C957.181 225.251 957.821 225.525 958.701 225.525C959.381 225.525 959.895 225.331 960.241 224.945C960.601 224.558 960.781 224.005 960.781 223.285H963.101C963.101 224.605 962.708 225.631 961.921 226.365C961.148 227.098 960.055 227.465 958.641 227.465ZM965.164 212.765H967.564V217.905H967.704C968.05 217.465 968.49 217.118 969.024 216.865C969.557 216.598 970.17 216.465 970.864 216.465C971.93 216.465 972.764 216.758 973.364 217.345C973.964 217.918 974.264 218.845 974.264 220.125V227.225H971.864V220.545C971.864 219.825 971.697 219.311 971.364 219.005C971.044 218.698 970.564 218.545 969.924 218.545C969.257 218.545 968.697 218.785 968.244 219.265C967.79 219.745 967.564 220.358 967.564 221.105V227.225H965.164V212.765Z" fill="#FBBC79"/>
<g filter="url(#filter1_d)">
<circle class="pulse" cx="1147" cy="177.225" r="8" fill="#FBBC79"/>
<circle class="pulse" cx="1147" cy="177.225" r="8" stroke="#FBBC79" stroke-width="3"/>
</g>
<path class="pulse" d="M1126.18 213.505H1128.9L1131.16 222.385C1131.26 222.731 1131.38 223.391 1131.54 224.365H1131.64C1131.8 223.338 1131.92 222.678 1131.98 222.385L1134.04 213.505H1137.28L1139.34 222.385C1139.42 222.758 1139.54 223.418 1139.7 224.365H1139.8C1139.96 223.418 1140.1 222.758 1140.2 222.385L1142.44 213.505H1144.86L1141.1 227.225H1138.14L1135.92 218.185C1135.8 217.705 1135.68 217.025 1135.54 216.145H1135.46C1135.32 217.105 1135.2 217.785 1135.1 218.185L1132.9 227.225H1129.94L1126.18 213.505ZM1146.02 212.765H1148.38V215.125H1146.02V212.765ZM1146.02 216.705H1148.42V227.225H1146.02V216.705ZM1151.19 216.705H1153.17L1153.37 218.105H1153.51C1153.9 217.585 1154.37 217.185 1154.93 216.905C1155.51 216.611 1156.16 216.465 1156.89 216.465C1157.96 216.465 1158.79 216.758 1159.39 217.345C1159.99 217.918 1160.29 218.845 1160.29 220.125V227.225H1157.89V220.545C1157.89 219.825 1157.73 219.311 1157.39 219.005C1157.07 218.698 1156.59 218.545 1155.95 218.545C1155.29 218.545 1154.73 218.785 1154.27 219.265C1153.82 219.745 1153.59 220.358 1153.59 221.105V227.225H1151.19V216.705ZM1163.39 213.505H1166.17L1165.53 223.465H1164.01L1163.39 213.505ZM1163.53 224.685H1166.03V227.225H1163.53V224.685Z" fill="#FBBC79"/>
<defs>
<filter id="filter0_d" x="908.5" y="146.725" width="65" height="65" filterUnits="userSpaceOnUse" color-interpolation-filters="sRGB">
<feFlood flood-opacity="0" result="BackgroundImageFix"/>
<feColorMatrix in="SourceAlpha" type="matrix" values="0 0 0 0 0 0 0 0 0 0 0 0 0 0 0 0 0 0 127 0"/>
<feMorphology radius="3" operator="dilate" in="SourceAlpha" result="effect1_dropShadow"/>
<feOffset dy="2"/>
<feGaussianBlur stdDeviation="10"/>
<feColorMatrix type="matrix" values="0 0 0 0 0.435294 0 0 0 0 0.592157 0 0 0 0 0.964706 0 0 0 1 0"/>
<feBlend mode="normal" in2="BackgroundImageFix" result="effect1_dropShadow"/>
<feBlend mode="normal" in="SourceGraphic" in2="effect1_dropShadow" result="shape"/>
</filter>
<filter id="filter1_d" x="1114.5" y="146.725" width="65" height="65" filterUnits="userSpaceOnUse" color-interpolation-filters="sRGB">
<feFlood flood-opacity="0" result="BackgroundImageFix"/>
<feColorMatrix in="SourceAlpha" type="matrix" values="0 0 0 0 0 0 0 0 0 0 0 0 0 0 0 0 0 0 127 0"/>
<feMorphology radius="3" operator="dilate" in="SourceAlpha" result="effect1_dropShadow"/>
<feOffset dy="2"/>
<feGaussianBlur stdDeviation="10"/>
<feColorMatrix type="matrix" values="0 0 0 0 0.435294 0 0 0 0 0.592157 0 0 0 0 0.964706 0 0 0 1 0"/>
<feBlend mode="normal" in2="BackgroundImageFix" result="effect1_dropShadow"/>
<feBlend mode="normal" in="SourceGraphic" in2="effect1_dropShadow" result="shape"/>
</filter>
</defs>
</svg>
